<?xml version="1.0" encoding="utf-8"?>
<!-- Generator: Adobe Illustrator 15.0.2, SVG Export Plug-In . SVG Version: 6.00 Build 0)  -->
<!DOCTYPE svg PUBLIC "-//W3C//DTD SVG 1.1//EN" "http://www.w3.org/Graphics/SVG/1.1/DTD/svg11.dtd">
<svg version="1.1" id="Layer_1" xmlns="http://www.w3.org/2000/svg" xmlns:xlink="http://www.w3.org/1999/xlink" x="0px" y="0px"
	 width="747.984px" height="748.014px" viewBox="0 0 747.984 748.014" enable-background="new 0 0 747.984 748.014"
	 xml:space="preserve">
<path fill="#F2F2F2" d="M305.465,177.698C234.612,113.272,145.868,73.776,145.868,73.776s-9.654,20.647-0.197,59.786
	c6.192,25.633,23.116,53.072,36.263,66.227c28.946,28.967,45.191,40.645,125.244,80.15c80.05,39.52,66.312,94.969,66.312,94.969
	s18.133-18.955,18.976-50.392C393.142,299.212,390.558,255.085,305.465,177.698z"/>
<path fill="#F2F2F2" d="M602.412,614.246c-6.151-25.647-23.036-53.104-36.164-66.255c-28.907-28.962-45.138-40.626-125.144-80.067
	c-80.007-39.447-66.177-94.995-66.177-94.995s-18.166,19.014-19.06,50.493c-0.719,25.339,1.797,69.527,86.786,146.875
	c70.768,64.412,159.466,103.821,159.466,103.821S611.81,653.433,602.412,614.246z"/>
<path fill="#F2F2F2" d="M73.803,602.069c0,0,39.451-88.726,103.882-159.536c77.38-85.036,121.549-87.581,146.88-86.877
	c31.47,0.872,50.461,19.027,50.461,19.027s-55.516-13.8-94.999,66.236c-39.483,80.024-51.153,96.267-80.122,125.192
	c-13.154,13.138-40.609,30.035-66.254,36.205C94.478,611.745,73.803,602.069,73.803,602.069z"/>
<path fill="#F2F2F2" d="M674.326,146.274c0,0-39.366,88.684-103.774,159.398c-77.354,84.938-121.579,87.415-146.947,86.67
	c-31.515-0.915-50.561-19.103-50.561-19.103s55.613,13.879,95.026-66.105c39.411-79.987,51.073-96.199,80.036-125.093
	c13.152-13.118,40.618-29.979,66.289-36.11C653.607,136.564,674.326,146.274,674.326,146.274z"/>
<path fill="#F2F2F2" d="M326.573,0c0,0,57.107,78.566,86.25,169.791c35,109.556,15.173,149.062,1.933,170.636
	c-16.449,26.809-41.632,34.152-41.632,34.152s39.623-41.145-9.942-115.393c-49.568-74.248-57.799-92.476-68.385-132.03
	c-4.807-17.965-5.741-50.193,1.709-75.483C307.888,13.049,326.573,0,326.573,0z"/>
<path fill="#F2F2F2" d="M421.513,748.013c0,0-57.112-78.479-86.191-169.637c-34.924-109.481-15.009-149.005-1.715-170.593
	c16.515-26.813,41.753-34.198,41.753-34.198s-39.751,41.189,9.813,115.354c49.563,74.16,57.787,92.374,68.34,131.912
	c4.793,17.951,5.688,50.167-1.811,75.455C440.249,734.939,421.513,748.013,421.513,748.013z"/>
<path fill="#F2F2F2" d="M340.383,333.45c-21.586-13.276-61.11-33.151-170.646,1.804C78.531,364.365,0,421.476,0,421.476
	s13.066,18.72,51.704,30.14c25.294,7.48,57.522,6.571,75.483,1.77c39.552-10.563,57.777-18.797,131.988-68.362
	c74.213-49.564,115.395-9.867,115.395-9.867S367.2,349.94,340.383,333.45z"/>
<path fill="#F2F2F2" d="M696.255,296.729c-25.295-7.521-57.516-6.66-75.465-1.865c-39.526,10.531-57.737,18.754-131.865,68.318
	c-74.127,49.563-115.35,9.729-115.35,9.729s7.4,25.274,34.231,41.829c21.599,13.327,61.138,33.291,170.598-1.59
	c91.146-29.044,169.581-86.157,169.581-86.157S734.896,308.224,696.255,296.729z"/>
<path fill="#F2F2F2" d="M26.267,228.022c0,0,96.602-10.168,190.179,10.208c112.385,24.472,136.688,61.394,148.754,83.649
	c14.989,27.646,8.765,53.126,8.765,53.126s-15.827-54.89-104.913-49.086c-89.087,5.8-108.991,3.812-148.545-6.802
	c-17.962-4.821-46.34-20.121-64.516-39.22C28.229,250.731,26.267,228.022,26.267,228.022z"/>
<path fill="#F2F2F2" d="M721.582,519.824c0,0-96.521,10.219-190.014-10.182c-112.281-24.496-136.554-61.509-148.604-83.812
	c-14.97-27.71-8.742-53.258-8.742-53.258s15.799,55.023,104.811,49.184c89.011-5.837,108.898-3.854,148.414,6.773
	c17.944,4.827,46.295,20.162,64.45,39.298C719.628,497.059,721.582,519.824,721.582,519.824z"/>
<path fill="#F2F2F2" d="M375.183,374.038c0,0-25.523-6.224-53.213,8.758c-22.288,12.058-59.269,36.342-83.758,148.676
	c-20.392,93.535-10.192,190.098-10.192,190.098s22.743-1.955,51.955-29.705c19.125-18.163,34.449-46.524,39.273-64.48
	c10.622-39.534,12.609-59.432,6.785-148.48S375.183,374.038,375.183,374.038z"/>
<path fill="#F2F2F2" d="M520.175,26.596c0,0-22.799,1.952-52.074,29.666c-19.165,18.144-34.521,46.479-39.352,64.417
	c-10.639,39.495-12.625,59.374-6.762,148.349c5.863,88.973-49.242,104.76-49.242,104.76s25.588,6.225,53.342-8.733
	c22.34-12.037,59.401-36.295,83.922-148.522C530.426,123.079,520.175,26.596,520.175,26.596z"/>
</svg>
