<svg xmlns="http://www.w3.org/2000/svg" width="17" height="10" viewBox="0 0 17 10"><g><g><path fill="#7c3d44" d="M16.272 8.12c-.504-.636-1.098-1.176-1.66-1.75-.507-.514-.539-.816-.131-1.412.444-.653.923-1.28 1.37-1.928.42-.608.848-1.212 1.069-1.938.14-.46.015-.664-.437-.745a1.391 1.391 0 0 0-.238-.016L13.56.33c-.33-.006-.513.146-.63.453-.158.414-.32.828-.51 1.228-.426.906-.902 1.783-1.57 2.526-.148.164-.31.369-.557.285-.308-.118-.399-.65-.394-.83L9.897.748c-.06-.46-.158-.667-.598-.757H6.51c-.372 0-.559.149-.758.394-.114.142-.149.231.087.28.463.09.724.404.793.889.11.777.103 1.556.039 2.336a2.25 2.25 0 0 1-.143.666c-.134.335-.352.402-.638.196-.26-.186-.441-.448-.62-.71A15.952 15.952 0 0 1 3.634.861C3.507.542 3.29.346 2.963.34a60.19 60.19 0 0 0-2.417 0c-.485.01-.63.254-.432.715.877 2.043 1.854 4.028 3.129 5.838.654.926 1.406 1.746 2.376 2.327 1.1.657 2.285.856 3.532.794.584-.028.76-.186.787-.796.018-.417.063-.83.26-1.206.193-.366.485-.437.821-.207.169.113.31.259.444.412.33.376.646.765.987 1.128.428.455.935.725 1.573.67h2.468c.397-.026.604-.537.375-1a4.959 4.959 0 0 0-.594-.896z"/></g></g></svg>