<?xml version="1.0" encoding="utf-8"?>
<!-- Generator: Adobe Illustrator 15.0.2, SVG Export Plug-In . SVG Version: 6.00 Build 0)  -->
<!DOCTYPE svg PUBLIC "-//W3C//DTD SVG 1.1//EN" "http://www.w3.org/Graphics/SVG/1.1/DTD/svg11.dtd">
<svg version="1.1" id="Layer_1" xmlns="http://www.w3.org/2000/svg" xmlns:xlink="http://www.w3.org/1999/xlink" x="0px" y="0px"
	 width="1920px" height="1080px" viewBox="0 0 1920 1080" enable-background="new 0 0 1920 1080" xml:space="preserve">
<g>
	<path fill-rule="evenodd" clip-rule="evenodd"  d="M1480.543,457.181c-36.935,0-40.347,53.727-41.596,80.6h75.117
		C1514.064,510.907,1510.957,457.181,1480.543,457.181z"/>
	<path fill-rule="evenodd" clip-rule="evenodd"  d="M820.638,457.181c-36.629,0-40.042,53.727-40.978,80.6h73.882
		C853.542,510.907,850.435,457.181,820.638,457.181z"/>
	<path fill-rule="evenodd" clip-rule="evenodd"  d="M448.781,457.181c-36.316,0-40.041,53.727-40.978,80.6h73.882
		C481.686,510.907,478.891,457.181,448.781,457.181z"/>
	<path fill-rule="evenodd" clip-rule="evenodd"  d="M0,0v1080h1920V0H0z M368.389,315.988
		c19.553,7.185,51.832,2.5,51.832,2.5l-48.42,91.524l-19.553-8.119L368.389,315.988z M283.027,704.891
		c-20.488,36.549-52.457,52.785-91.874,58.104l-7.144-24.052c46.248-13.129,41.906-64.971,41.906-131.819V336.916
		c12.104,0.943,23.895,2.505,36.006,2.505c12.103,0,24.213-1.562,36.004-2.505v261.146
		C297.926,633.668,299.479,676.777,283.027,704.891z M550.9,562.141H407.804c-1.546,52.169,16.452,94.328,69.534,94.328
		c20.488,0,42.836-9.68,58.359-22.789l6.207,4.363l-11.181,28.423c-19.864,14.372-46.866,22.804-71.386,22.804
		c-82.878,0-125.402-50.6-125.402-133.376c0-70.911,41.9-121.832,114.534-121.832C526.688,434.062,556.179,489.352,550.9,562.141z
		 M702.687,677.719c-18.006,7.174-35.692,11.558-51.216,11.558c-50.903,0-62.389-34.983-62.389-82.153V471.238h-33.529
		c1.555-11.559,1.555-20.926,0-32.484h33.529v-57.167c22.035-9.367,44.383-19.99,67.973-31.544v88.711h41.906
		c-1.553,11.559-1.553,20.926,0,32.484h-41.906v144.631c0,34.983,1.865,53.725,45.632,41.857V677.719z M922.444,562.141H779.66
		c-1.547,52.169,16.459,94.328,69.221,94.328c20.489,0,43.148-9.68,58.672-22.789l5.896,4.363l-10.868,28.423
		c-20.178,14.372-47.18,22.804-71.697,22.804c-82.879,0-125.403-50.6-125.403-133.376c0-70.911,41.907-121.832,114.534-121.832
		C898.543,434.062,928.035,489.352,922.444,562.141z M1099.994,503.102l-4.66,4.057c-6.514-4.371-17.688-6.562-25.768-6.562
		c-22.028,0-40.347,11.567-46.242,33.429c-4.647,14.686-3.101,42.787-3.101,59.03v91.852c-11.485-1.257-23.284-2.827-34.763-2.827
		c-11.486,0-23.284,1.57-34.771,2.827V438.753c11.486,0.935,23.284,2.499,34.771,2.499c11.479,0,23.277-1.564,34.763-2.499v62.786
		c10.557-36.855,32.904-67.47,82.254-67.47C1099.994,458.123,1098.441,481.229,1099.994,503.102z M1340.868,684.907
		c-11.805-1.257-23.284-2.827-35.075-2.827c-11.492,0-22.972,1.57-34.77,2.827V558.391c0-47.164-5.896-81.525-41.283-81.525
		c-43.76,0-43.76,59.353-43.76,91.209v116.833c-11.805-1.257-23.283-2.827-34.77-2.827c-11.798,0-23.277,1.57-34.764,2.827V438.753
		c10.862,0.935,22.043,2.499,33.521,2.499c11.175,0,22.349-1.564,33.522-2.499v37.483c20.177-23.745,46.249-42.167,77.6-42.167
		c63.631,0,79.777,41.226,79.777,102.148V684.907z M1584.215,562.141h-145.268c-1.547,52.169,16.765,94.328,70.775,94.328
		c20.794,0,43.454-9.68,59.282-22.789l5.896,4.363l-10.855,28.423c-20.488,14.372-47.803,22.804-72.633,22.804
		c-84.433,0-127.574-50.6-127.574-133.376c0-70.911,42.83-121.832,116.393-121.832
		C1559.696,434.062,1589.799,489.352,1584.215,562.141z M1728.864,762.992c-40.048-5.313-72.321-21.554-93.435-58.104
		c-16.452-28.115-15.211-71.218-15.211-106.83V336.91c12.416,0.951,24.526,2.508,36.63,2.508c12.415,0,24.525-1.557,36.628-2.508
		v270.209c0,66.849-4.348,118.697,42.519,131.828L1728.864,762.992z"/>
</g>
</svg>
