<?xml version="1.0" encoding="utf-8"?>
<!-- Generator: Adobe Illustrator 15.0.2, SVG Export Plug-In . SVG Version: 6.00 Build 0)  -->
<!DOCTYPE svg PUBLIC "-//W3C//DTD SVG 1.1//EN" "http://www.w3.org/Graphics/SVG/1.1/DTD/svg11.dtd">
<svg version="1.1" id="Layer_1" xmlns="http://www.w3.org/2000/svg" xmlns:xlink="http://www.w3.org/1999/xlink" x="0px" y="0px"
	 width="183.057px" height="48.566px" viewBox="0 0 183.057 48.566" enable-background="new 0 0 183.057 48.566"
	 xml:space="preserve">
<g>
	<path fill-rule="evenodd" clip-rule="evenodd"  d="M13.409,5.32h3.318c-0.136-0.267-0.271-0.501-0.405-0.769h-3.049
		C13.307,4.786,13.341,5.053,13.409,5.32"/>
	<path fill-rule="evenodd" clip-rule="evenodd"  d="M13.646,6.291h3.69c-0.169-0.234-0.338-0.503-0.508-0.77h-3.386
		C13.51,5.755,13.579,6.023,13.646,6.291"/>
	<path fill-rule="evenodd" clip-rule="evenodd"  d="M17.268,9.2h3.116c-0.203-0.134-0.575-0.367-1.049-0.735h-4.674
		c0.102,0.134,0.203,0.267,0.305,0.434C15.814,9,16.591,9.1,17.268,9.2"/>
	<path fill-rule="evenodd" clip-rule="evenodd"  d="M14.018,7.26h4.098c-0.203-0.233-0.44-0.502-0.643-0.769h-3.759
		C13.815,6.758,13.917,6.993,14.018,7.26"/>
	<path fill-rule="evenodd" clip-rule="evenodd"  d="M32.236,7.26c0-0.233,0.033-0.502,0.066-0.769h-3.486
		c0,0.033-0.035,0.066-0.035,0.1v0.033c0.205,0.235,0.375,0.435,0.541,0.636H32.236z"/>
	<path fill-rule="evenodd" clip-rule="evenodd"  d="M24.752,2.376c0.068,0.067,0.137,0.135,0.203,0.201L25.6,3.213
		c0.135,0.133,0.236,0.233,0.371,0.367c0.137,0.101,0.238,0.235,0.373,0.368c0.137,0.134,0.271,0.269,0.373,0.402
		c0.068,0.067,0.135,0.134,0.203,0.201c0.135,0.133,0.236,0.267,0.371,0.369c0.102,0.132,0.238,0.267,0.34,0.399
		c0.033,0.034,0.066,0.068,0.102,0.101c0.135-0.067,0.271-0.167,0.371-0.268c0.068-0.033,0.104-0.101,0.172-0.167
		c0.066-0.066,0.102-0.133,0.135-0.201c0.102-0.134,0.168-0.301,0.203-0.435V4.283l0.102-0.301V3.948
		c0-0.167,0.033-0.334,0.033-0.501c0-0.3-0.066-0.601-0.17-0.836V2.578c-0.033-0.066-0.066-0.134-0.102-0.201
		c-0.066-0.134-0.135-0.267-0.236-0.401h-0.033c-0.035-0.066-0.068-0.134-0.137-0.166V1.776c-0.303-0.268-0.678-0.503-1.049-0.603
		c-0.033,0-0.033,0-0.033-0.033c-0.102,0-0.17-0.034-0.271-0.034H26.65c-0.104-0.034-0.205-0.034-0.307-0.034
		c-0.1,0-0.203,0-0.307,0.034h-0.066c-0.102,0-0.168,0.034-0.271,0.067h-0.033c-0.1,0.033-0.168,0.067-0.271,0.1
		c-0.102,0.033-0.201,0.066-0.27,0.134c-0.203,0.102-0.373,0.268-0.543,0.403v0.032c-0.066,0.067-0.135,0.134-0.168,0.234
		C24.516,2.177,24.617,2.276,24.752,2.376"/>
	<path fill-rule="evenodd" clip-rule="evenodd"  d="M18.318,7.461h-4.197c0.135,0.268,0.27,0.535,0.405,0.77h4.572
		C18.86,8.029,18.59,7.762,18.318,7.461"/>
	<path fill-rule="evenodd" clip-rule="evenodd"  d="M32.338,10.203c-0.035-0.233-0.068-0.469-0.102-0.769h-1.287
		c0.17,0.268,0.34,0.536,0.508,0.769H32.338z"/>
	<path fill-rule="evenodd" clip-rule="evenodd"  d="M4.436,32.647h4.639c0.032-0.268,0.066-0.504,0.101-0.771h-3.25
		C5.484,32.144,4.977,32.413,4.436,32.647"/>
	<path fill-rule="evenodd" clip-rule="evenodd"  d="M2.775,34.587h5.114c0.338-0.168,0.677-0.368,1.015-0.602v-0.168
		H3.046L2.775,34.587z"/>
	<path fill-rule="evenodd" clip-rule="evenodd"  d="M3.351,33.015l-0.237,0.602h5.824
		c0.034-0.268,0.069-0.502,0.103-0.77H3.893C3.724,32.913,3.521,32.981,3.351,33.015"/>
	<path fill-rule="evenodd" clip-rule="evenodd"  d="M6.23,31.677h2.979c0.034-0.268,0.103-0.535,0.136-0.77H7.247
		C6.94,31.142,6.601,31.409,6.23,31.677"/>
	<path fill-rule="evenodd" clip-rule="evenodd"  d="M2.708,34.787l-0.271,0.769h0.136h2.166
		c0.779-0.1,1.729-0.301,2.71-0.769H2.708z"/>
	<path fill-rule="evenodd" clip-rule="evenodd"  d="M3.25,15.655l-0.78,0.401h1.559
		C3.758,15.923,3.52,15.823,3.25,15.655"/>
	<path fill-rule="evenodd" clip-rule="evenodd"  d="M8.906,39.704c-0.035-0.066-0.035-0.168-0.035-0.234
		c-0.033-0.235-0.033-0.501-0.068-0.77v-0.201c0-0.133,0-0.268-0.033-0.367V37.73v-0.202v-0.768v-0.234c0-0.234,0-0.502,0.033-0.736
		v-0.468c-0.1-0.034-0.201-0.034-0.304-0.034c-0.102,0-0.203,0-0.271,0.034H8.16c-0.102,0-0.134,0.033-0.202,0.033
		c-0.035,0-0.068,0-0.068,0.034c-0.067,0-0.169,0.033-0.237,0.065H7.618c-0.203,0.067-0.405,0.202-0.574,0.303
		c-0.069,0.065-0.137,0.133-0.204,0.167c-0.033,0.066-0.102,0.133-0.17,0.199c-0.032,0.068-0.101,0.102-0.135,0.168
		c0,0.033-0.034,0.033-0.034,0.033c-0.067,0.135-0.169,0.268-0.237,0.436c0,0.066-0.033,0.134-0.067,0.168
		c0,0.065,0,0.1-0.033,0.133v0.067c-0.034,0.066-0.034,0.1-0.034,0.167v0.033c-0.034,0.066-0.034,0.135-0.034,0.199v0.135v0.067
		c0,0.335,0.102,0.669,0.237,0.97c0.033,0.067,0.067,0.135,0.137,0.199c0.032,0.069,0.066,0.136,0.133,0.203
		c0.036,0.066,0.102,0.132,0.137,0.199h0.034c0.237,0.268,0.542,0.437,0.88,0.569l0.035,0.032c0.066,0,0.101,0.034,0.135,0.034
		c0.034,0.034,0.101,0.034,0.17,0.034c0.034,0,0.034,0.033,0.066,0.033h0.136c0.033,0,0.068,0.033,0.068,0.033h0.236
		c0.136,0,0.271,0,0.407-0.033v-0.168V39.704z"/>
	<path fill-rule="evenodd" clip-rule="evenodd"  d="M16.253,4.351c-0.102-0.269-0.204-0.502-0.306-0.77h-2.709
		c0,0.201,0,0.468,0.034,0.77H16.253z"/>
	<path fill-rule="evenodd" clip-rule="evenodd"  d="M32.508,5.521h-3.455c-0.066,0.234-0.135,0.502-0.203,0.77h3.488
		C32.406,6.023,32.439,5.788,32.508,5.521"/>
	<path fill-rule="evenodd" clip-rule="evenodd"  d="M42.699,17.228h-2.811c-0.066,0.268-0.102,0.502-0.168,0.769
		h2.064C42.055,17.73,42.361,17.495,42.699,17.228"/>
	<path fill-rule="evenodd" clip-rule="evenodd"  d="M46.186,15.288h-5.992c-0.033,0.234-0.066,0.501-0.102,0.77h4.539
		C45.07,15.822,46.186,15.288,46.186,15.288"/>
	<path fill-rule="evenodd" clip-rule="evenodd"  d="M44.189,16.257h-4.131c-0.068,0.234-0.102,0.502-0.137,0.77h3.049
		C43.344,16.759,43.748,16.491,44.189,16.257"/>
	<path fill-rule="evenodd" clip-rule="evenodd"  d="M41.582,18.197h-1.896c-0.068,0.267-0.135,0.502-0.203,0.769
		h1.389C41.074,18.732,41.311,18.464,41.582,18.197"/>
	<path fill-rule="evenodd" clip-rule="evenodd"  d="M29.492,7.461c0.203,0.268,0.408,0.535,0.576,0.77h2.1
		c0-0.235,0.033-0.501,0.033-0.77H29.492z"/>
	<path fill-rule="evenodd" clip-rule="evenodd"  d="M47,12.946c0,0-1.389-0.268-3.283,0.167h3.25L47,12.946z"/>
	<path fill-rule="evenodd" clip-rule="evenodd"  d="M40.432,13.113v0.067c0.17,0.068,0.338,0.101,0.609,0.101
		c0.27,0,0.541-0.067,0.813-0.168c0.201-0.066,0.406-0.167,0.576-0.301c0.203-0.133,0.336-0.301,0.473-0.467
		c0.068-0.068,0.102-0.133,0.17-0.201c0.033-0.067,0.068-0.135,0.102-0.168v-0.033c0.033-0.032,0.068-0.101,0.068-0.167l0.033-0.034
		c0-0.067,0.035-0.1,0.035-0.167c0.033-0.033,0.033-0.102,0.064-0.167c0-0.101,0.035-0.167,0.035-0.234v-0.269v-0.267
		c0-0.067-0.035-0.167-0.035-0.234c-0.031-0.134-0.064-0.233-0.1-0.334c-0.033-0.033-0.033-0.067-0.033-0.101
		c-0.035-0.065-0.068-0.099-0.102-0.165c-0.068-0.134-0.137-0.269-0.238-0.37c-0.203-0.267-0.439-0.468-0.744-0.635
		c-0.068-0.034-0.137-0.067-0.205-0.101h-0.031c-0.068-0.034-0.137-0.034-0.205-0.068h-0.033c-0.068-0.032-0.135-0.032-0.168-0.065
		h-0.139c-0.031,0-0.066-0.034-0.1-0.034h-0.236c-0.238,0-0.439,0.034-0.576,0.067v0.368c0,0.067,0.033,0.168,0.033,0.234v0.234
		v0.334v0.135c0,0.099,0.035,0.2,0.035,0.301v0.2v0.77c0,0.066-0.035,0.133-0.035,0.201v0.769c0,0.067-0.033,0.133-0.033,0.201
		C40.465,12.611,40.432,12.845,40.432,13.113"/>
	<path fill-rule="evenodd" clip-rule="evenodd"  d="M41.242,14.084h5.387l0.27-0.77h-3.895
		C42.43,13.515,41.852,13.749,41.242,14.084"/>
	<path fill-rule="evenodd" clip-rule="evenodd"  d="M40.701,19.167h-1.252c-0.068,0.267-0.135,0.535-0.205,0.77h0.916
		C40.26,19.769,40.432,19.502,40.701,19.167"/>
	<path fill-rule="evenodd" clip-rule="evenodd"  d="M7.483,30.673h1.896c0.066-0.232,0.135-0.502,0.168-0.769H8.261
		C8.025,30.171,7.789,30.406,7.483,30.673"/>
	<path fill-rule="evenodd" clip-rule="evenodd"  d="M32.201,9.2c0-0.233-0.033-0.469-0.033-0.735h-1.93
		c0.205,0.267,0.373,0.502,0.541,0.735H32.201z"/>
	<path fill-rule="evenodd" clip-rule="evenodd"  d="M32.846,4.551h-3.453c-0.104,0.233-0.203,0.502-0.271,0.769h3.455
		C32.643,5.053,32.744,4.819,32.846,4.551"/>
	<path fill-rule="evenodd" clip-rule="evenodd"  d="M33.252,3.581h-3.387c-0.135,0.234-0.27,0.469-0.406,0.77h3.455
		C33.016,4.083,33.115,3.815,33.252,3.581"/>
	<path fill-rule="evenodd" clip-rule="evenodd"  d="M46.525,14.317h-5.621c-0.17,0.067-0.439,0.435-0.676,0.703v0.066
		h6.061L46.525,14.317z"/>
	<path fill-rule="evenodd" clip-rule="evenodd"  d="M42.732,28.265c-0.203,0.168-0.371,0.335-0.574,0.47h2.506
		c-0.578-0.202-1.186-0.368-1.863-0.503C42.801,28.231,42.801,28.265,42.732,28.265"/>
	<path fill-rule="evenodd" clip-rule="evenodd"  d="M45.814,32.647h0.814l1.59-0.771H43.58
		C44.324,32.011,45.07,32.278,45.814,32.647"/>
	<path fill-rule="evenodd" clip-rule="evenodd"  d="M45.24,26.023c-0.307,0.269-0.576,0.503-0.814,0.771
		c-0.102,0.066-0.168,0.133-0.236,0.2c-0.104,0.101-0.236,0.201-0.338,0.302c0.033,0.065,0.102,0.166,0.17,0.233
		c0.133,0.2,0.303,0.401,0.506,0.535c0.035,0.032,0.068,0.032,0.104,0.066c0.066,0.034,0.1,0.067,0.168,0.103
		c0.068,0.031,0.102,0.064,0.17,0.064c0.033,0.033,0.066,0.033,0.102,0.067c0.066,0.034,0.102,0.034,0.17,0.067h0.066
		c0.102,0.033,0.203,0.067,0.271,0.067h0.102c0.102,0.033,0.168,0.033,0.27,0.033h0.236c0.035,0,0.068-0.033,0.102-0.033h0.137
		c0.035,0,0.068-0.034,0.102-0.034c0.035,0,0.068-0.033,0.104-0.033c0.033,0,0.102-0.033,0.135-0.033s0.033-0.034,0.066-0.034
		c0.068,0,0.104-0.034,0.137-0.034C47,28.298,47,28.298,47.033,28.298c0.035-0.033,0.102-0.064,0.137-0.064
		c0-0.035,0.033-0.035,0.033-0.035c0.068-0.033,0.102-0.067,0.135-0.102c0.035,0,0.035,0,0.035-0.032
		c0.439-0.302,0.779-0.769,0.914-1.271c0-0.102,0.035-0.202,0.035-0.301c0.031,0,0.031,0,0.031-0.034v-0.301v-0.135
		c0-0.065,0-0.134-0.031-0.233c0-0.067,0-0.134-0.035-0.201c0-0.066-0.033-0.1-0.033-0.133c-0.035-0.033-0.035-0.067-0.035-0.102
		c-0.066-0.199-0.17-0.367-0.271-0.533c-0.066-0.068-0.1-0.136-0.168-0.201l-0.203-0.201c0,0-0.033-0.034-0.068-0.034
		c-0.033-0.066-0.066-0.1-0.135-0.133c-0.068-0.067-0.17-0.102-0.238-0.168c-0.135,0.133-0.236,0.267-0.371,0.401
		c-0.102,0.1-0.238,0.234-0.34,0.336c-0.068,0.098-0.17,0.166-0.238,0.232c-0.236,0.268-0.506,0.502-0.744,0.736
		C45.375,25.89,45.307,25.958,45.24,26.023"/>
	<path fill-rule="evenodd" clip-rule="evenodd"  d="M35.42,42.614h-3.625c0.137,0.232,0.305,0.502,0.475,0.768h3.352
		C35.555,43.116,35.488,42.882,35.42,42.614"/>
	<path fill-rule="evenodd" clip-rule="evenodd"  d="M39.211,30.907c-0.541,0.335-0.98,0.569-1.285,0.77h2.064
		c0.609-0.067,1.355-0.067,2.133,0h6.537c-0.068-0.067-0.273-0.369-0.68-0.77H39.211z"/>
	<path fill-rule="evenodd" clip-rule="evenodd"  d="M35.656,43.583h-3.285c0.137,0.234,0.271,0.502,0.373,0.77h3.047
		C35.758,44.119,35.725,43.851,35.656,43.583"/>
	<path fill-rule="evenodd" clip-rule="evenodd"  d="M35.52,46.293h0.238c0-0.101,0.033-0.368,0.066-0.769h-2.572
		L35.52,46.293z"/>
	<path fill-rule="evenodd" clip-rule="evenodd"  d="M32.846,44.554c0.102,0.233,0.203,0.503,0.27,0.77h2.709
		c0-0.234,0-0.469-0.033-0.77H32.846z"/>
	<path fill-rule="evenodd" clip-rule="evenodd"  d="M40.533,41.208c0-0.033,0-0.066,0.031-0.099v-0.067
		c0.035-0.066,0.035-0.135,0.035-0.168v-0.032c0.035-0.102,0.035-0.235,0.035-0.369V40.44c0-0.101,0-0.201-0.035-0.302
		c-1.422,0.033-3.047,0.033-4.74-0.101c0,0.066,0,0.134-0.033,0.201v0.233c0,0.134,0.033,0.268,0.033,0.369v0.032
		c0.033,0.033,0.033,0.102,0.033,0.168c0,0,0.035,0.033,0.035,0.067c0,0.032,0,0.065,0.031,0.099c0,0.068,0.035,0.102,0.035,0.135
		s0.035,0.033,0.035,0.066c0.068,0.168,0.137,0.302,0.236,0.436l0.035,0.033c0.033,0.066,0.066,0.102,0.133,0.168v0.032
		c0.068,0.034,0.104,0.101,0.17,0.135v0.033c0.068,0.032,0.137,0.101,0.205,0.134c0.168,0.133,0.371,0.233,0.574,0.335h0.033
		c0.068,0.032,0.137,0.032,0.238,0.066h0.035c0.066,0.033,0.133,0.033,0.201,0.066h0.068h0.271h0.27h0.068
		c0.066-0.033,0.135-0.033,0.203-0.066h0.068c0.068-0.034,0.135-0.034,0.203-0.066h0.035c0.066-0.034,0.168-0.067,0.236-0.102
		c0.135-0.067,0.236-0.134,0.338-0.233c0.068-0.033,0.137-0.102,0.201-0.134v-0.033c0.068-0.034,0.139-0.101,0.17-0.135
		c0-0.032,0-0.032,0.035-0.032c0.033-0.066,0.068-0.102,0.135-0.168v-0.033c0.102-0.134,0.17-0.268,0.238-0.436
		c0.033-0.033,0.033-0.033,0.033-0.066C40.498,41.31,40.498,41.276,40.533,41.208"/>
	<path fill-rule="evenodd" clip-rule="evenodd"  d="M6.771,20.171H6.127c0.17,0.033,0.34,0.067,0.51,0.1
		C6.669,20.238,6.704,20.204,6.771,20.171"/>
	<path fill-rule="evenodd" clip-rule="evenodd"  d="M4.265,22.479L4.265,22.479c0.137-0.135,0.271-0.233,0.373-0.368
		c0.068-0.067,0.136-0.134,0.237-0.2c0.137-0.135,0.271-0.269,0.406-0.402c0.136-0.133,0.236-0.267,0.373-0.367
		c-0.034-0.1-0.102-0.167-0.137-0.267c-0.034-0.034-0.067-0.068-0.101-0.135c-0.034,0-0.068-0.033-0.068-0.033
		c-0.034-0.034-0.067-0.067-0.1-0.101c-0.036-0.033-0.069-0.033-0.069-0.066c-0.034,0-0.102-0.033-0.136-0.067
		c-0.032,0-0.032-0.034-0.067-0.034c-0.068-0.033-0.102-0.033-0.136-0.066c-0.034,0-0.067,0-0.102-0.034
		c-0.033,0-0.102,0-0.135-0.033H4.501c-0.065-0.034-0.134-0.034-0.202-0.034c-0.034,0-0.067,0-0.101-0.032H3.893H3.657
		c-0.033,0.032-0.068,0.032-0.102,0.032H3.419c-0.067,0.034-0.102,0.034-0.17,0.067H3.182c-0.068,0.034-0.136,0.067-0.169,0.067
		s-0.033,0-0.033,0.033c-0.068,0-0.136,0.034-0.204,0.069v0.033c-0.203,0.1-0.407,0.233-0.542,0.368L2.201,20.94
		c-0.203,0.201-0.374,0.468-0.508,0.769c-0.034,0.066-0.067,0.134-0.067,0.201c-0.068,0.133-0.102,0.302-0.102,0.434
		c0,0.101-0.034,0.168-0.034,0.269s0.034,0.167,0.034,0.269c0.033,0.367,0.102,0.702,0.27,0.969c0.068,0.166,0.17,0.301,0.271,0.402
		c0.035,0.034,0.035,0.066,0.069,0.066c0.034,0.033,0.034,0.033,0.067,0.066s0.102,0.101,0.168,0.135
		c0.137-0.168,0.271-0.302,0.407-0.469c0.068-0.066,0.136-0.134,0.204-0.201c0.101-0.133,0.236-0.267,0.338-0.367
		c0.034-0.033,0.068-0.067,0.102-0.102c0.068-0.1,0.169-0.2,0.271-0.3c0.068-0.067,0.135-0.134,0.203-0.2
		C4.03,22.746,4.13,22.612,4.265,22.479"/>
	<path fill-rule="evenodd" clip-rule="evenodd"  d="M9.278,18.197H2.132c0.305,0.267,0.643,0.535,1.05,0.769h5.046
		C8.601,18.667,8.938,18.431,9.278,18.197"/>
	<path fill-rule="evenodd" clip-rule="evenodd"  d="M10.902,17.228H1.118c0.169,0.2,0.439,0.468,0.744,0.769h7.721
		C10.125,17.663,10.564,17.395,10.902,17.228"/>
	<path fill-rule="evenodd" clip-rule="evenodd"  d="M40.904,29.703h5.656c-0.406-0.269-0.883-0.535-1.389-0.769h-3.25
		C41.549,29.233,41.242,29.47,40.904,29.703"/>
	<path fill-rule="evenodd" clip-rule="evenodd"  d="M39.551,30.673h8.229c-0.236-0.232-0.543-0.502-0.914-0.769
		h-6.232C40.229,30.204,39.854,30.474,39.551,30.673"/>
	<path fill-rule="evenodd" clip-rule="evenodd"  d="M7.957,19.167H3.555c0.508,0.301,1.118,0.569,1.795,0.77h1.658
		C7.314,19.669,7.651,19.401,7.957,19.167"/>
	<path fill-rule="evenodd" clip-rule="evenodd"  d="M48.66,19.937c0.305-0.402,0.541-0.769,0.744-1.104
		c-0.033,0-0.033-0.033-0.068-0.033h-0.033c-0.068-0.068-0.17-0.102-0.305-0.133v-0.034c-0.137-0.033-0.27-0.102-0.439-0.168h-0.035
		c-0.17-0.066-0.373-0.132-0.576-0.167c0,0-0.033,0-0.033-0.033c-0.102,0-0.236-0.034-0.338-0.067c-0.779-0.134-1.83-0.2-3.014,0
		c-0.744,0.135-1.559,0.368-2.439,0.77c-0.676,0.3-1.354,0.668-2.1,1.17l-0.033,0.033h-0.814c-0.064,0.234-0.133,0.468-0.201,0.702
		l-0.271,0.268l-0.813,0.77l-0.813,0.769l-0.203,0.2l-0.236,0.202c0,0,0.066-0.067,0.135-0.202c0.035-0.032,0.068-0.099,0.068-0.131
		c0.102-0.168,0.203-0.369,0.305-0.638c0.135-0.302,0.305-0.702,0.439-1.17v-0.034c0.035-0.1,0.104-0.199,0.137-0.334v-0.033
		c0.033-0.101,0.066-0.234,0.1-0.368c0.068-0.2,0.104-0.369,0.137-0.569c0.033,0,0.033-0.034,0.033-0.034
		c0.035-0.134,0.068-0.267,0.068-0.401c0.033-0.068,0.033-0.134,0.066-0.2c0.035-0.102,0.035-0.235,0.068-0.368
		c0.033-0.135,0.068-0.268,0.068-0.369l0.035-0.034c0-0.066,0-0.134,0.033-0.2v-0.034c0-0.102,0.033-0.202,0.068-0.335v-0.033
		c0-0.102,0.033-0.235,0.033-0.368c0.031-0.202,0.066-0.369,0.1-0.57v-0.032c0.035-0.102,0.035-0.235,0.035-0.369
		c0.068-0.369,0.102-0.77,0.135-1.171v-0.033c0.035-0.234,0.035-0.501,0.068-0.736c0.068-0.971,0.102-2.007,0.102-3.144v-0.033
		c0-0.536,0-1.104-0.033-1.706V9.2c0-0.234,0-0.5-0.035-0.736V8.23c-0.033-0.301-0.033-0.636-0.066-0.971
		c0-0.334-0.035-0.635-0.068-0.97V6.257c-0.033-0.302-0.068-0.636-0.068-0.936V5.287C38.568,5.052,38.533,4.819,38.5,4.55V4.383
		V4.351c-0.066-0.269-0.135-0.536-0.168-0.77c-0.033-0.1-0.068-0.201-0.068-0.3c0,0-0.102,0.033-0.236,0.065
		c-0.238,0.102-0.678,0.235-1.152,0.535h-0.033c-0.305,0.168-0.609,0.403-0.982,0.669c-0.033,0.034-0.102,0.101-0.135,0.135
		c-0.035,0-0.035,0.033-0.068,0.033l-0.168,0.167l-0.035,0.033c-0.068,0.068-0.135,0.101-0.17,0.167
		c-0.033,0-0.033,0.034-0.066,0.034c-0.203,0.235-0.441,0.469-0.643,0.77h-0.035c-0.068,0.135-0.17,0.268-0.27,0.401
		c-0.205,0.301-0.408,0.603-0.611,0.97c-0.102,0.201-0.17,0.368-0.27,0.569v0.033c-0.068,0.134-0.137,0.235-0.17,0.369
		c-0.068,0.201-0.137,0.368-0.205,0.568c0,0-0.033,0.033-0.033,0.066c-0.033,0.101-0.068,0.236-0.1,0.335
		c-0.068,0.202-0.137,0.368-0.17,0.536c-0.035,0.133-0.068,0.233-0.068,0.334c-0.035,0.034-0.035,0.067-0.035,0.133
		c-0.031,0.067-0.031,0.133-0.066,0.201c0,0.133-0.033,0.234-0.066,0.368c0,0-0.035-0.134-0.104-0.368h-0.777
		c0.201,0.301,0.338,0.568,0.439,0.77h0.338l-0.033,0.201h-0.17c0.068,0.134,0.102,0.234,0.102,0.234l-0.135,1.94L32.1,14.084v0.233
		l-0.031,0.635c-0.035-0.134-0.068-0.234-0.104-0.334c-0.068-0.167-0.102-0.335-0.17-0.535c-0.066-0.102-0.102-0.234-0.168-0.369
		c-0.033-0.134-0.102-0.267-0.137-0.368v-0.033c-0.102-0.167-0.201-0.368-0.303-0.569c-0.068-0.201-0.17-0.401-0.307-0.601
		c-0.135-0.269-0.27-0.502-0.438-0.77c-0.035-0.068-0.068-0.134-0.104-0.201h-0.033c-0.205-0.335-0.406-0.669-0.645-0.971
		c-0.205-0.334-0.439-0.669-0.711-1.003c-0.17-0.234-0.373-0.5-0.574-0.736h-0.035c-0.033-0.1-0.102-0.168-0.17-0.233
		c-0.203-0.268-0.404-0.501-0.643-0.77c-0.068-0.066-0.137-0.134-0.168-0.201h-0.035c-0.203-0.267-0.439-0.502-0.678-0.769
		c-0.068-0.067-0.137-0.134-0.203-0.201c-0.236-0.267-0.508-0.535-0.746-0.77c-0.066-0.066-0.133-0.134-0.201-0.2
		c-0.271-0.269-0.541-0.536-0.779-0.771c-0.609-0.567-1.184-1.103-1.729-1.571c-0.166-0.134-0.305-0.268-0.439-0.367V2.578
		c-0.066-0.068-0.17-0.135-0.236-0.202c-0.168-0.133-0.338-0.267-0.473-0.401c-0.238-0.2-0.475-0.4-0.713-0.568
		c-0.27-0.235-0.506-0.435-0.745-0.603C20.08,0.571,19.842,0.37,19.64,0.237c-0.035,0-0.069-0.034-0.069-0.068
		c-0.033,0-0.067-0.034-0.101-0.067c-0.034,0-0.034-0.032-0.067-0.032L19.37,0.035c0,0-0.034,0-0.034-0.034L19.3,0.035
		c-0.034,0.034-0.066,0.134-0.169,0.301c0,0.034,0,0.067-0.033,0.101c-0.033,0.066-0.069,0.134-0.103,0.2
		c0,0.066-0.034,0.1-0.034,0.167h-0.033c0,0.067-0.034,0.134-0.034,0.167l-0.033,0.033c-0.136,0.402-0.271,0.938-0.338,1.573
		c-0.035,0.335-0.035,0.635-0.035,1.003c0,0.1,0.035,0.234,0.035,0.334V3.95c0,0.132,0.033,0.233,0.033,0.367v0.034
		c0.034,0.166,0.066,0.367,0.1,0.567c0.035,0.201,0.069,0.402,0.137,0.602c0.034,0.1,0.068,0.234,0.102,0.368
		c0.135,0.502,0.34,1.037,0.609,1.572v0.033c0.137,0.235,0.271,0.469,0.407,0.736c0.033,0.065,0.068,0.134,0.137,0.233
		c0.168,0.268,0.337,0.569,0.54,0.87l0.068,0.101h-2.303c1.422,0.301,2.303,0.602,2.641,0.769h0.135l0.068,0.067l0.135,0.134
		l0.104,0.1l1.793,1.84v0.033v-0.033c-0.506-0.234-1.049-0.435-1.557-0.603h-0.035c-0.168-0.067-0.338-0.133-0.541-0.201
		c-0.44-0.134-0.88-0.267-1.321-0.367c-0.17-0.067-0.339-0.101-0.509-0.134h-0.067c-0.338-0.101-0.676-0.168-1.049-0.234h-0.034
		c-0.169-0.034-0.339-0.068-0.507-0.101c-0.374-0.067-0.747-0.134-1.086-0.167h-0.032c-1.592-0.234-3.149-0.334-4.605-0.334
		c-2.134-0.034-4.029,0.067-5.315,0.201c-0.983,0.1-1.627,0.201-1.763,0.201H4.774H4.74h0.034c-0.475,0.1-0.98,0.201-1.456,0.3
		c0,0,0.033,0.101,0.067,0.269c0.034,0.066,0.034,0.133,0.066,0.201c0.035,0.067,0.035,0.1,0.069,0.166
		c0.034,0.068,0.067,0.101,0.067,0.167l0.035,0.034c0,0.034,0.033,0.101,0.066,0.167v0.034c0.104,0.167,0.203,0.367,0.339,0.568
		l0.033,0.033c0.034,0.067,0.068,0.1,0.103,0.167c0,0,0,0.033,0.034,0.033c0.033,0.067,0.066,0.101,0.101,0.167l0.034,0.034
		c0.103,0.133,0.203,0.268,0.305,0.368c0.035,0.066,0.102,0.134,0.169,0.202c0.034,0.065,0.068,0.1,0.136,0.133
		c0,0.033,0.033,0.066,0.033,0.066l0.17,0.168l0.035,0.032c0.134,0.134,0.27,0.269,0.439,0.402c0.136,0.134,0.305,0.234,0.474,0.368
		h0.033c0.067,0.067,0.17,0.134,0.237,0.201H6.4c0.068,0.066,0.17,0.133,0.27,0.2c0.237,0.134,0.476,0.268,0.744,0.401
		c0.137,0.068,0.273,0.133,0.408,0.201h0.034c0.135,0.066,0.236,0.134,0.405,0.167c0,0.034,0,0.034,0.034,0.034
		c0.136,0.034,0.271,0.1,0.406,0.167c0.202,0.067,0.44,0.133,0.644,0.201c0.202,0.066,0.406,0.1,0.609,0.166
		c0.067,0,0.136,0.034,0.203,0.034c0.068,0.034,0.136,0.034,0.237,0.067c0.136,0.034,0.305,0.068,0.508,0.102
		c0,0-3.047,0.868-6.366-0.369H2.032l-1.219,0.568c0,0,0.033,0.068,0.135,0.201h10.396c0.372-0.167,0.542-0.201,0.542-0.201
		l3.521-0.067c-0.643,0.268-1.285,0.536-1.896,0.837c-0.406,0.2-0.813,0.402-1.186,0.602c-0.236,0.135-0.439,0.267-0.677,0.402
		c-0.202,0.099-0.439,0.233-0.645,0.368c-0.101,0.066-0.236,0.132-0.338,0.2c-0.203,0.134-0.372,0.267-0.575,0.401
		c-0.033,0-0.033,0-0.068,0.034c-0.169,0.101-0.338,0.234-0.508,0.334c-0.101,0.068-0.204,0.167-0.305,0.234
		c-0.169,0.1-0.339,0.234-0.508,0.368c-0.033,0-0.033,0-0.033,0.033c-0.272,0.167-0.509,0.368-0.779,0.569
		c-0.136,0.101-0.306,0.235-0.44,0.367c-0.035,0-0.035,0.033-0.067,0.033c-0.373,0.302-0.744,0.604-1.084,0.938
		c-0.033,0-0.033,0.033-0.067,0.033c-0.136,0.134-0.272,0.236-0.372,0.367c-0.237,0.202-0.407,0.369-0.61,0.57
		c-0.034,0-0.034,0.033-0.066,0.033c-0.306,0.301-0.645,0.635-0.916,0.937c-0.033,0-0.033,0.034-0.066,0.034
		c-0.17,0.199-0.373,0.4-0.542,0.601H3.624c-0.306,0.335-0.577,0.669-0.849,0.97H2.743c-0.205,0.269-0.44,0.503-0.644,0.771
		c-0.272,0.334-0.542,0.668-0.779,0.969c-0.271,0.368-0.541,0.703-0.712,0.971H0.575c-0.033,0.066-0.102,0.134-0.136,0.2v0.034
		c-0.067,0.1-0.17,0.201-0.202,0.268C0.136,29.368,0.067,29.502,0,29.603c0,0,0.27,0.201,0.779,0.4h0.034
		c0.27,0.102,0.608,0.203,1.014,0.27c0.103,0.033,0.171,0.033,0.272,0.066h0.033c0.101,0,0.204,0.033,0.305,0.033H2.47
		c0.104,0.033,0.237,0.033,0.34,0.033c0.745,0.066,1.592,0,2.54-0.199h0.033c0.135-0.035,0.306-0.068,0.475-0.135
		c0.337-0.102,0.712-0.199,1.083-0.368c0.034,0,0.102-0.034,0.136-0.067c0.101-0.033,0.17-0.065,0.27-0.1
		c0.067-0.034,0.17-0.068,0.237-0.102c0.068-0.033,0.136-0.066,0.17-0.1c0.103-0.066,0.203-0.1,0.305-0.133
		c0.034-0.033,0.067-0.068,0.102-0.068c0.236-0.133,0.474-0.267,0.678-0.4c0.066-0.033,0.101-0.068,0.17-0.101
		c0.135-0.066,0.271-0.167,0.406-0.268c0,0-0.068,0.135-0.204,0.368h0.644c0.067-0.268,0.136-0.5,0.237-0.77
		c0-0.066,0.034-0.133,0.067-0.201c0.068-0.267,0.136-0.501,0.237-0.769c0.033-0.067,0.033-0.134,0.067-0.2
		c0.068-0.168,0.136-0.335,0.17-0.502c0.033,0,0.033-0.034,0.033-0.068c0.168-0.367,0.168-0.399,0.204-0.467
		c0.033-0.135,0.101-0.301,0.169-0.436c0.033-0.1,0.067-0.199,0.135-0.268c0-0.101,0.035-0.168,0.067-0.232
		c0.136-0.269,0.238-0.503,0.373-0.771c0.034-0.067,0.067-0.134,0.102-0.201c0.067-0.167,0.17-0.302,0.237-0.434
		c0.068-0.102,0.136-0.236,0.17-0.335c0.067-0.067,0.101-0.134,0.136-0.202c0.066-0.131,0.134-0.268,0.236-0.367
		c0.135-0.201,0.271-0.434,0.406-0.602c0.169-0.269,0.372-0.534,0.541-0.77c0.068-0.067,0.137-0.133,0.169-0.201
		c0.136-0.167,0.237-0.267,0.34-0.401l0.033-0.033l0.34-0.334c0.066-0.101,0.134-0.167,0.202-0.234
		c0.135-0.134,0.305-0.267,0.44-0.402c0.136-0.1,0.305-0.233,0.439-0.334c0.103-0.101,0.204-0.167,0.272-0.233
		c0.406-0.301,0.845-0.537,1.253-0.77c0.135-0.066,0.271-0.134,0.405-0.2c0.406-0.202,0.813-0.335,1.22-0.47
		c0.1-0.034,0.203-0.066,0.305-0.1h0.033c0.102-0.034,0.171-0.067,0.271-0.067h0.033c0.171-0.066,0.372-0.099,0.543-0.133
		c1.117-0.202,2.1-0.202,2.877-0.135c0.205,0.033,0.475,0.067,0.779,0.135c0.068,0.034,0.137,0.034,0.236,0.067
		c0.068,0.032,0.17,0.032,0.238,0.066h0.033c0.068,0.034,0.135,0.034,0.236,0.067s0.17,0.066,0.271,0.1s0.203,0.068,0.305,0.101
		c0.102,0.034,0.17,0.066,0.27,0.1c0.205,0.101,0.406,0.167,0.611,0.269c0.135,0.065,0.305,0.133,0.438,0.2
		c0.104,0.067,0.207,0.135,0.342,0.167c0.102,0.066,0.201,0.133,0.303,0.2h0.035c0.102,0.068,0.203,0.133,0.305,0.201
		c0.135,0.067,0.236,0.134,0.34,0.202c0.1,0.066,0.201,0.132,0.303,0.2c0.17,0.134,0.305,0.233,0.475,0.367l0.033,0.034
		c0.17,0.135,0.305,0.268,0.441,0.368c0.102,0.068,0.168,0.167,0.236,0.234c0.137,0.1,0.238,0.234,0.34,0.368h0.033
		c0.102,0.134,0.203,0.268,0.338,0.401c0.035,0.068,0.102,0.133,0.135,0.201c0.102,0.101,0.17,0.235,0.273,0.367
		c0.066,0.134,0.168,0.268,0.236,0.402c0.033,0.066,0.066,0.135,0.102,0.2c0.068,0.134,0.137,0.235,0.17,0.368
		c0.066,0.133,0.1,0.27,0.168,0.4c0,0.068,0.035,0.135,0.068,0.202c0.033,0.133,0.066,0.233,0.066,0.368h0.035v0.033v0.065
		c0,0,0,0.034,0.033,0.034c0,0.066,0.033,0.168,0.033,0.268c0,0.067,0,0.134,0.035,0.234v0.737v0.232
		c0,0.102-0.035,0.201-0.035,0.335v0.034c0,0.1-0.033,0.233-0.033,0.367c0,0.199-0.033,0.368-0.068,0.568v0.033
		c0.035,0,0.068,0.167,0.102,0.402c0.102,0.267,0.203,0.668,0.373,1.17c0.035,0.101,0.068,0.234,0.104,0.334
		c0,0.033,0,0.033,0.031,0.067c0.068,0.201,0.137,0.368,0.205,0.568c0.1,0.335,0.236,0.637,0.371,0.971
		c0.135,0.335,0.305,0.669,0.441,1.004h0.033c0.271,0.568,0.609,1.169,0.982,1.739c0.066,0.066,0.1,0.133,0.168,0.199
		c0.068,0.136,0.17,0.234,0.271,0.367l0.035,0.035c0.1,0.133,0.203,0.234,0.305,0.367c0.168,0.201,0.338,0.402,0.541,0.568
		c0,0,0.137,0.47-0.779-0.268c-0.066-0.066-0.203-0.167-0.34-0.301c-0.033-0.066-0.102-0.1-0.135-0.167h-0.033
		c-0.17-0.167-0.373-0.368-0.609-0.603c-0.066-0.066-0.135-0.133-0.238-0.199c-0.236-0.234-0.473-0.502-0.744-0.771
		c-0.102-0.065-0.17-0.133-0.236-0.199c-0.238-0.268-0.508-0.535-0.746-0.769c-0.102-0.068-0.168-0.169-0.236-0.235l-0.373-0.367
		C30.137,30.171,30,30.038,29.9,29.904c-0.104-0.067-0.17-0.167-0.271-0.235c-0.102-0.099-0.172-0.201-0.271-0.301
		c-0.068-0.033-0.102-0.1-0.168-0.133c-0.035-0.066-0.068-0.102-0.102-0.135c-0.17-0.167-0.34-0.335-0.441-0.468
		c-0.033,0-0.068-0.034-0.068-0.066c-0.035,0-0.035,0-0.035-0.033c-0.371-0.335-0.574-0.569-0.574-0.569h-0.033
		c-0.068-0.033-0.271-0.1-0.543-0.201c-0.066-0.033-0.168-0.1-0.27-0.133c-0.102-0.068-0.203-0.101-0.305-0.168
		c-0.203-0.135-0.439-0.3-0.678-0.468c-0.068-0.067-0.135-0.134-0.236-0.2c-0.17-0.168-0.373-0.369-0.543-0.57
		c-0.033-0.065-0.1-0.133-0.168-0.2c-0.035-0.065-0.102-0.134-0.137-0.233c-0.068-0.102-0.168-0.234-0.236-0.334v-0.033
		c-0.068-0.102-0.135-0.235-0.203-0.369c-0.033-0.101-0.068-0.168-0.068-0.232c-0.068-0.136-0.135-0.303-0.17-0.471l-0.102-0.3
		c-0.066-0.201-0.1-0.368-0.168-0.568c0,0,0-0.033-0.035-0.033c-0.033-0.135-0.066-0.235-0.1-0.368
		c-0.033-0.067-0.068-0.134-0.068-0.202c-0.137-0.367-0.271-0.701-0.439-0.969c-0.035-0.067-0.068-0.135-0.104-0.2v-0.034
		c-0.033-0.066-0.066-0.135-0.135-0.168v-0.033c-0.068-0.099-0.168-0.233-0.271-0.334c-0.068-0.067-0.133-0.133-0.201-0.201
		c-0.07-0.067-0.137-0.134-0.205-0.167c0-0.034,0-0.034-0.033-0.034c-0.068-0.032-0.137-0.1-0.203-0.133
		c-0.035,0-0.035,0-0.035-0.034c-0.1-0.033-0.168-0.066-0.236-0.101H22.01c-0.203-0.066-0.373-0.133-0.609-0.167h-0.033
		c-0.102-0.034-0.205-0.034-0.307-0.067h-0.067h-0.338h-0.068h-0.372c-0.103,0-0.168,0-0.271,0.034h-0.102
		c-0.033,0.034-0.101,0.034-0.136,0.034c-0.033,0-0.102,0.033-0.136,0.033c-0.033,0-0.067,0.034-0.101,0.034
		c-0.067,0-0.101,0.033-0.17,0.066h-0.066c-0.068,0.034-0.103,0.068-0.169,0.101h-0.036c-0.067,0.033-0.135,0.067-0.202,0.1h-0.034
		c-0.067,0.068-0.137,0.1-0.202,0.134c-0.169,0.101-0.339,0.235-0.475,0.368c-0.068,0.033-0.136,0.101-0.169,0.166h-0.034
		c-0.066,0.069-0.102,0.102-0.17,0.168v0.033c-0.067,0.067-0.101,0.102-0.169,0.168v0.034c-0.068,0.065-0.101,0.133-0.17,0.2
		c-0.033,0.066-0.101,0.135-0.136,0.2c-0.066,0.101-0.135,0.235-0.202,0.334c0,0.034,0,0.034-0.033,0.067
		c-0.068,0.167-0.171,0.367-0.237,0.569c-0.035,0.133-0.103,0.233-0.137,0.368v0.033c-0.032,0.166-0.102,0.367-0.136,0.568
		c0,0.134-0.032,0.268-0.032,0.402c-0.034,0.167-0.034,0.368-0.034,0.601c0,0.436,0.034,0.87,0.135,1.338
		c0.035,0.135,0.067,0.268,0.102,0.402c0.067,0.301,0.169,0.634,0.306,0.936v0.033c0.034,0.068,0.067,0.135,0.101,0.201
		c0.034,0.133,0.103,0.27,0.169,0.367v0.034c0.068,0.135,0.136,0.233,0.205,0.368c0.032,0.066,0.067,0.134,0.101,0.2
		c0.035,0.067,0.068,0.101,0.102,0.167c0.102,0.201,0.237,0.401,0.372,0.603c0.137,0.201,0.271,0.401,0.407,0.603h0.033
		c0.339,0.467,0.711,0.937,1.117,1.371c0.068,0.066,0.137,0.134,0.204,0.199c0.238,0.27,0.508,0.503,0.778,0.771
		c0.068,0.066,0.136,0.133,0.236,0.199c0.272,0.268,0.612,0.535,0.915,0.77c0.104,0.068,0.17,0.134,0.271,0.201
		c0.371,0.268,0.713,0.535,1.117,0.769c0.541,0.368,1.084,0.669,1.66,0.97c0.135,0.068,0.27,0.135,0.406,0.201v0.033
		c0.744,0.368,1.488,0.669,2.199,0.971c0.441,0.133,0.848,0.301,1.254,0.4c0.406,0.135,0.779,0.27,1.186,0.369
		c0.1,0,0.203,0.032,0.338,0.066c0,0,0.475,0.101,1.355,0.199h0.033c0.236,0.034,0.441,0.068,0.711,0.102h0.068
		c0.137,0.033,0.238,0.033,0.373,0.066c0.135,0,0.27,0.034,0.439,0.034h0.102c0.102,0.034,0.236,0.034,0.371,0.067h0.07
		c0.135,0,0.303,0.033,0.473,0.033h0.104c0.133,0.032,0.27,0.032,0.404,0.032c0.035,0.034,0.068,0.034,0.102,0.034
		c0.17,0,0.338,0,0.508,0.033h0.102c0.17,0,0.305,0.033,0.441,0.033h0.135c0.205,0.034,0.373,0.034,0.576,0.034h0.102
		c0.135,0.034,0.305,0.034,0.473,0.034h0.17c0.17,0,0.373,0.031,0.576,0.031h0.068H38.5c0.033,0,0.102,0,0.137,0.034h0.643
		c-0.033-0.034-0.068-0.034-0.104-0.065c1.053,0,2.102,0.031,3.254,0c0.744-0.034,1.523-0.068,2.303-0.135
		c0.473-0.066,0.914-0.133,1.387-0.234c0,0-1.084-4.783-7.719-6.02h-0.068c0.068-0.035,0.102-0.035,0.168-0.035h-0.98h-3.354
		c0,0,0.203-0.1,0.576-0.266c0.305-0.168,0.746-0.402,1.285-0.702c0.104-0.068,0.238-0.136,0.373-0.235
		c0.068-0.033,0.17-0.1,0.238-0.133l0.033-0.034c0.102-0.067,0.203-0.101,0.271-0.167h0.033c0.102-0.066,0.203-0.133,0.305-0.201
		h0.033c0.102-0.066,0.17-0.135,0.271-0.199c0.035,0,0.035,0,0.035-0.034c0.135-0.067,0.236-0.135,0.338-0.201
		c0.168-0.101,0.34-0.235,0.541-0.335c0-0.033,0.033-0.033,0.068-0.066c0.678-0.435,1.422-0.971,2.201-1.539
		c0.34-0.267,0.678-0.501,1.016-0.769c0.236-0.2,0.475-0.402,0.744-0.603c0.17-0.134,0.34-0.268,0.543-0.434
		c0.371-0.302,0.711-0.604,1.049-0.904c0.441-0.401,0.881-0.802,1.254-1.204c0.271-0.268,0.506-0.502,0.744-0.769
		c0.066-0.067,0.135-0.134,0.205-0.202v-0.032c0.305-0.335,0.574-0.636,0.846-0.937c0-0.033,0-0.033,0.033-0.033
		c0.373-0.469,0.744-0.937,1.051-1.338c0.1-0.134,0.168-0.268,0.27-0.368C48.559,20.104,48.625,20.004,48.66,19.937 M33.422,14.084
		c0.066-0.234,0.135-0.503,0.201-0.77c0.035-0.066,0.035-0.134,0.07-0.201c0.033-0.1,0.102-0.233,0.135-0.368
		c0.033,0,0.033-0.033,0.033-0.033c0.066-0.134,0.102-0.233,0.17-0.368c0.033-0.068,0.068-0.135,0.102-0.2
		c0.068-0.135,0.168-0.269,0.236-0.368c0,0,0-0.034,0.033-0.034c0.068-0.133,0.172-0.233,0.271-0.367
		c0.035-0.068,0.102-0.134,0.17-0.201c0.035-0.067,0.102-0.134,0.135-0.167c0.068-0.067,0.135-0.134,0.203-0.167v0.234
		c0,0.034,0,0.068,0.035,0.101c0,0.167,0.033,0.367,0.033,0.636c0.033,0.099,0.033,0.166,0.033,0.232c0,0.102,0.035,0.2,0.035,0.302
		c0.033,0.2,0.033,0.434,0.066,0.669c0,0.1,0.035,0.201,0.035,0.301c0,0.1,0.033,0.202,0.033,0.301c0,0.167,0.035,0.334,0.035,0.469
		c0,0.233,0.033,0.434,0.033,0.635v0.334v0.234v0.334c0,0.034,0,0.102-0.033,0.134v0.301c0,0.067,0,0.133-0.035,0.201
		c0,0.134,0,0.267-0.033,0.369v0.098c-0.035,0.101-0.035,0.203-0.035,0.302c-0.033,0.067-0.033,0.134-0.033,0.202
		c-0.033,0.133-0.068,0.266-0.102,0.401c-0.033,0.133-0.033,0.267-0.068,0.369c-0.035,0.065-0.035,0.133-0.068,0.2
		c-0.066,0.301-0.168,0.535-0.234,0.77c-0.035,0.066-0.068,0.166-0.104,0.233c0,0.033,0,0.066-0.033,0.101
		c-0.033,0.034-0.033,0.067-0.068,0.133c0,0.034-0.035,0.068-0.035,0.134c-0.031,0-0.031,0.034-0.031,0.067
		c-0.033,0.034-0.068,0.101-0.068,0.133c-0.033,0-0.033,0.033-0.033,0.033c-0.035,0.067-0.035,0.101-0.068,0.134
		c-0.035,0.034-0.035,0.068-0.035,0.102c-0.033,0.032-0.066,0.065-0.102,0.133c-0.031,0.033-0.068,0.1-0.1,0.167v0.034
		c-0.035,0.033-0.068,0.1-0.137,0.167v0.033c-0.033,0.034-0.102,0.101-0.137,0.135v0.032c-0.066,0.067-0.133,0.134-0.168,0.201
		c-0.066,0.068-0.137,0.133-0.203,0.201c-0.203,0.201-0.439,0.367-0.711,0.569h-0.033c-0.102,0.065-0.17,0.133-0.271,0.2
		c-0.135,0.066-0.238,0.135-0.373,0.2c-0.068,0.034-0.135,0.067-0.236,0.101c-0.068,0.033-0.137,0.066-0.238,0.135
		c0,0,0.678-0.67,1.119-1.774c0,0,0.033,0,0.033-0.033c0.035-0.134,0.102-0.234,0.135-0.368c0.068-0.2,0.102-0.402,0.137-0.603
		c0.033-0.134,0.033-0.267,0.066-0.368v-0.033v-0.535v-0.301v-0.135v-0.2c-0.033-0.135-0.033-0.235-0.033-0.369v-0.401v-0.202
		v-0.769c0-0.068,0.033-0.134,0.033-0.201v-0.368v-0.068c0.035-0.1,0.035-0.233,0.035-0.334c0.033-0.066,0.033-0.133,0.033-0.201
		c0.033-0.268,0.068-0.535,0.137-0.769C33.389,14.218,33.422,14.15,33.422,14.084 M24.922,9.803L24.922,9.803V9.435V9.2V8.865V8.832
		c0.035-0.132,0.035-0.267,0.066-0.368v-0.2c0,0,0.068,0.066,0.17,0.2c0,0.034,0.035,0.067,0.068,0.134h0.035
		c0.201,0.267,0.506,0.702,0.914,1.205h0.033c0.135,0.166,0.303,0.4,0.508,0.601c0.102,0.133,0.236,0.234,0.338,0.368
		c0.203,0.2,0.371,0.401,0.576,0.602c0.27,0.267,0.508,0.501,0.813,0.77c0.033,0.034,0.1,0.099,0.17,0.132
		c0,0.034,0.033,0.068,0.068,0.068c0.1,0.134,0.236,0.234,0.371,0.368c0.137,0.134,0.271,0.268,0.404,0.401
		c0.07,0.067,0.139,0.134,0.205,0.201c0.135,0.134,0.238,0.235,0.338,0.368c0.035,0,0.035,0.033,0.035,0.033
		c0.102,0.135,0.236,0.234,0.34,0.369c0.068,0.066,0.102,0.134,0.168,0.233c0.203,0.234,0.406,0.501,0.576,0.736
		c0.033,0.101,0.102,0.167,0.135,0.234c0.17,0.234,0.34,0.502,0.475,0.77c0.033,0.067,0.066,0.133,0.102,0.201
		c0.066,0.134,0.135,0.234,0.17,0.369v0.032c0.068,0.101,0.1,0.236,0.168,0.368c0,0.067,0.033,0.134,0.068,0.202
		c0.033,0.133,0.066,0.266,0.102,0.368v0.033c0.033,0.1,0.068,0.233,0.068,0.369c0.033,0.065,0.033,0.133,0.033,0.2
		c0.035,0.267,0.068,0.535,0.035,0.77v0.2c-0.035,0.267-0.104,0.536-0.172,0.769c-0.033,0.068-0.066,0.167-0.102,0.234
		c0,0.066-0.033,0.1-0.066,0.167c-0.035,0.067-0.066,0.133-0.102,0.201c0,0.033-0.033,0.1-0.033,0.134
		c-0.068,0.066-0.104,0.167-0.17,0.233v0.034c-0.035,0.068-0.102,0.133-0.137,0.201c-0.066,0.101-0.168,0.166-0.236,0.268
		c-0.033,0.033-0.068,0.1-0.1,0.133c-0.035,0.034-0.068,0.068-0.104,0.101c-0.066,0.102-0.17,0.167-0.236,0.269v-0.102v-0.065
		c0-0.033,0.033-0.067,0.033-0.067v-0.034v-0.066v-0.034v-0.1v-0.033v-0.102c0.033,0,0.033,0,0.033-0.033v-0.133
		c0-0.268,0-0.602-0.066-0.97c0-0.2-0.035-0.402-0.068-0.603c-0.033-0.134-0.068-0.267-0.102-0.368v-0.033
		c-0.135-0.469-0.371-0.97-0.678-1.472c0,0,0-0.033-0.033-0.033c-0.068-0.101-0.137-0.201-0.205-0.268
		c-0.135-0.202-0.27-0.368-0.439-0.536l-0.035-0.033c-0.031-0.067-0.1-0.101-0.168-0.167v-0.032
		c-0.066-0.034-0.135-0.102-0.201-0.169c-0.17-0.2-0.373-0.367-0.576-0.568c-0.068-0.066-0.135-0.134-0.203-0.2
		c0,0-0.033,0-0.033-0.034c-0.137-0.099-0.271-0.234-0.408-0.368c-0.066-0.066-0.135-0.133-0.203-0.234
		c-0.271-0.234-0.508-0.468-0.744-0.736c-0.033-0.066-0.102-0.167-0.17-0.233c-0.102-0.102-0.203-0.234-0.305-0.369
		c-0.102-0.134-0.201-0.267-0.27-0.401c-0.068-0.066-0.104-0.134-0.139-0.201c-0.168-0.233-0.303-0.502-0.438-0.769
		c-0.033-0.068-0.068-0.135-0.102-0.2c-0.068-0.135-0.104-0.235-0.17-0.368c-0.033-0.134-0.102-0.268-0.135-0.401
		c0-0.068-0.035-0.134-0.068-0.201c-0.068-0.269-0.102-0.502-0.137-0.77c-0.031-0.068-0.031-0.134-0.031-0.201
		C24.957,10.07,24.922,9.937,24.922,9.803 M30.307,20.906c-0.068-0.066-0.17-0.199-0.238-0.301l-0.033-0.034
		c-0.035-0.066-0.104-0.134-0.135-0.2h-0.035c-0.033-0.067-0.102-0.134-0.17-0.201c-0.033-0.067-0.1-0.133-0.168-0.234
		c-0.07-0.034-0.102-0.101-0.17-0.167c-0.305-0.334-0.643-0.669-1.049-1.003c-0.102-0.034-0.17-0.099-0.238-0.166
		c-0.033,0-0.033-0.035-0.066-0.035c-0.068-0.067-0.104-0.101-0.17-0.134c-0.033-0.033-0.033-0.033-0.066-0.066
		c-0.205-0.1-0.375-0.234-0.578-0.367c-0.1-0.068-0.201-0.102-0.303-0.168h-0.035c-0.102-0.067-0.203-0.134-0.305-0.167
		c-0.135-0.067-0.271-0.135-0.439-0.201l-0.035-0.034c-0.168-0.067-0.305-0.133-0.473-0.2c-0.205-0.068-0.373-0.135-0.543-0.202
		c-0.473-0.167-0.947-0.334-1.457-0.535c-0.031,0-0.064-0.034-0.133-0.034c-0.17-0.066-0.34-0.133-0.545-0.2
		c-0.166-0.068-0.371-0.134-0.574-0.201c-0.305-0.133-0.609-0.234-0.912-0.368c-0.035,0-0.035,0-0.068-0.034
		c-0.102-0.034-0.238-0.099-0.374-0.167h-0.068c-0.134-0.067-0.303-0.134-0.439-0.201c-0.136-0.066-0.271-0.133-0.438-0.234
		c-0.104-0.034-0.205-0.101-0.306-0.167h-0.035c-0.102-0.067-0.203-0.101-0.304-0.167c0,0-0.033,0-0.033-0.034
		c-0.104-0.034-0.171-0.1-0.271-0.167h-0.033c-0.104-0.066-0.204-0.133-0.306-0.201c-0.104-0.066-0.203-0.167-0.305-0.233
		c-0.305-0.234-0.576-0.469-0.813-0.77c-0.068-0.066-0.102-0.134-0.169-0.201c-0.036-0.034-0.069-0.1-0.103-0.134
		c-0.034-0.067-0.103-0.133-0.136-0.201c0,0,1.321,0.034,3.115,0.335c0.339,0.067,0.677,0.134,1.05,0.201
		c0.609,0.168,1.254,0.334,1.896,0.536c0,0,0.033,0,0.033,0.034c0.238,0.066,0.439,0.133,0.645,0.201
		c0.203,0.066,0.371,0.134,0.541,0.233c0.135,0.034,0.271,0.101,0.406,0.167c0.135,0.067,0.271,0.101,0.406,0.167
		c0.238,0.134,0.508,0.269,0.779,0.435c0.203,0.101,0.404,0.201,0.574,0.334c0.17,0.101,0.307,0.2,0.441,0.302
		c0.033,0,0.033,0.033,0.066,0.033c0.137,0.1,0.271,0.201,0.373,0.301c0.102,0.067,0.205,0.133,0.271,0.201
		c0.338,0.267,0.609,0.501,0.848,0.769l0.201,0.202c0.238,0.266,0.441,0.534,0.609,0.77c0.068,0.065,0.104,0.133,0.137,0.2
		c0.102,0.135,0.168,0.267,0.236,0.402c0.066,0.132,0.135,0.266,0.203,0.368c0.033,0.066,0.068,0.132,0.102,0.233
		c0.102,0.268,0.205,0.502,0.238,0.736c0.035,0.102,0.035,0.167,0.068,0.234c0.033,0.201,0.066,0.401,0.066,0.568l0.033,0.034v0.134
		v0.234v0.101v0.101c-0.033-0.035-0.033-0.068-0.066-0.101c-0.066-0.101-0.135-0.2-0.203-0.301V20.906z"/>
	<path fill-rule="evenodd" clip-rule="evenodd"  d="M34.438,40.44c-0.102-0.201-0.236-0.368-0.373-0.569
		c0,0,0-0.034-0.033-0.034c-0.338-0.033-0.711-0.1-1.084-0.166h-4.166c0.238,0.166,0.611,0.401,1.018,0.77H34.438z"/>
	<path fill-rule="evenodd" clip-rule="evenodd"  d="M16.693,42.614c-0.066,0.232-0.102,0.502-0.17,0.768h3.455
		c0.101-0.266,0.135-0.5,0.202-0.768H16.693z"/>
	<path fill-rule="evenodd" clip-rule="evenodd"  d="M35.047,41.644h-4.029c0.203,0.234,0.406,0.469,0.609,0.736h3.725
		C35.283,42.146,35.184,41.878,35.047,41.644"/>
	<path fill-rule="evenodd" clip-rule="evenodd"  d="M16.862,40.641c0,0.268,0,0.502-0.033,0.77h2.844
		c-0.202-0.235-0.405-0.502-0.607-0.77H16.862z"/>
	<path fill-rule="evenodd" clip-rule="evenodd"  d="M15.746,45.323h3.42c0.136-0.234,0.271-0.502,0.372-0.77h-3.421
		C16.016,44.821,15.879,45.056,15.746,45.323"/>
	<path fill-rule="evenodd" clip-rule="evenodd"  d="M15.61,45.591l0.339,0.702h2.539
		c0.203-0.233,0.373-0.469,0.542-0.769h-3.387C15.61,45.558,15.61,45.558,15.61,45.591"/>
	<path fill-rule="evenodd" clip-rule="evenodd"  d="M16.727,42.38h3.488c0.033-0.033,0.033-0.101,0.033-0.167
		c0,0,0.034,0,0.034-0.067c-0.136-0.166-0.304-0.335-0.439-0.501h-3.015C16.794,41.878,16.76,42.146,16.727,42.38"/>
	<path fill-rule="evenodd" clip-rule="evenodd"  d="M16.185,44.353h3.454c0.103-0.233,0.203-0.502,0.271-0.769h-3.454
		C16.39,43.817,16.287,44.085,16.185,44.353"/>
	<path fill-rule="evenodd" clip-rule="evenodd"  d="M8.431,29.703h1.185c0.068-0.233,0.103-0.502,0.204-0.769H9.041
		C8.906,29.168,8.702,29.435,8.431,29.703"/>
	<path fill-rule="evenodd" clip-rule="evenodd"  d="M34.572,40.641h-4.537c0.236,0.233,0.51,0.502,0.779,0.77h4.164
		C34.844,41.175,34.709,40.908,34.572,40.641"/>
	<path fill-rule="evenodd" clip-rule="evenodd"  d="M16.795,47.999c0,0,0.237-0.168,0.642-0.502h-0.914L16.795,47.999
		z"/>
	<path fill-rule="evenodd" clip-rule="evenodd"  d="M16.829,39.671c0.033,0.233,0.033,0.502,0.033,0.77h2.032
		c-0.17-0.234-0.339-0.502-0.508-0.77H16.829z"/>
	<path fill-rule="evenodd" clip-rule="evenodd"  d="M16.727,38.7c0.033,0.199,0.067,0.47,0.102,0.769h1.423
		c-0.17-0.267-0.339-0.501-0.474-0.769H16.727z"/>
	<path fill-rule="evenodd" clip-rule="evenodd"  d="M16.422,47.263h1.219c0.205-0.2,0.44-0.469,0.712-0.77h-2.304
		L16.422,47.263z"/>
	<path fill-rule="evenodd" clip-rule="evenodd"  d="M13.375,8.766V8.732c0-0.102-0.033-0.2-0.033-0.268
		c-0.068-0.568-0.339-1.07-0.745-1.438c-0.069-0.102-0.17-0.167-0.238-0.234c-0.202-0.133-0.405-0.235-0.608-0.301
		c-0.271-0.067-0.509-0.134-0.779-0.134s-0.542,0.067-0.779,0.134C9.955,6.557,9.75,6.659,9.583,6.792
		c-0.101,0.067-0.17,0.133-0.271,0.234L9.074,7.259C8.871,7.527,8.703,7.862,8.601,8.23C8.565,8.398,8.565,8.565,8.565,8.732
		C10.36,8.665,11.953,8.699,13.375,8.766"/>
	<path fill-rule="evenodd" clip-rule="evenodd"  d="M27.598,22.444L27.598,22.444
		c0.033,0.136,0.033,0.269,0.066,0.437c0,0.033,0,0.033,0.035,0.066c0.033,0.201,0.068,0.367,0.135,0.534
		c0.066,0.136,0.102,0.267,0.17,0.368c0.033,0.067,0.066,0.134,0.102,0.201c0.438,0.835,1.082,1.371,1.387,1.606h0.033
		c0,0.032,0.035,0.065,0.07,0.065h0.033c0,0.032,0.033,0.032,0.033,0.067h0.033l0.035,0.033V25.79v-0.035
		c0-0.032,0-0.032,0.033-0.065v-0.032v-0.034v-0.032v-0.035c0-0.066,0-0.134,0.035-0.233v-0.135v-0.134c0-0.066,0-0.168,0.035-0.233
		c0-0.233,0-0.502-0.035-0.77c-0.035-0.402-0.104-0.803-0.238-1.17c0-0.068-0.035-0.135-0.068-0.202v-0.034
		c-0.033-0.064-0.066-0.099-0.1-0.166c-0.068-0.066-0.104-0.134-0.137-0.201c-0.068-0.065-0.102-0.1-0.168-0.168
		c-0.068-0.065-0.137-0.133-0.205-0.199c-0.033-0.033-0.066-0.066-0.102-0.066c-0.404-0.301-0.846-0.369-1.049-0.034
		c-0.068,0.101-0.102,0.2-0.102,0.3c0,0.034,0,0.103-0.033,0.136v0.032V22.444z"/>
	<path fill-rule="evenodd" clip-rule="evenodd"  d="M24.178,45.892c-0.137-0.134-0.271-0.234-0.408-0.367
		c-0.066-0.067-0.17-0.135-0.234-0.201c-0.271-0.234-0.578-0.502-0.85-0.77c-0.1-0.066-0.168-0.133-0.236-0.201
		c-0.27-0.268-0.539-0.501-0.813-0.769l-0.033-0.033c-0.576,0.2-1.05,0.636-1.288,1.169c-0.033,0-0.033,0.034-0.033,0.034
		c-0.035,0.067-0.035,0.101-0.067,0.167v0.035c-0.035,0.033-0.035,0.1-0.068,0.166c0,0.066-0.034,0.134-0.034,0.201
		c-0.033,0.134-0.033,0.268-0.033,0.435v0.268v0.034c0,0.066,0.033,0.166,0.067,0.234c0.033,0.232,0.101,0.436,0.237,0.635
		c0.033,0.067,0.068,0.1,0.102,0.167c0.067,0.066,0.102,0.134,0.137,0.167c0.066,0.101,0.135,0.167,0.201,0.234
		c0.102,0.1,0.239,0.168,0.338,0.268h0.035c0.035,0.033,0.102,0.066,0.17,0.1H21.4c0.035,0.033,0.104,0.067,0.168,0.067
		c0,0.033,0.035,0.033,0.035,0.033c0.068,0.034,0.102,0.034,0.168,0.067h0.07c0.068,0.035,0.1,0.035,0.168,0.035
		c0.033,0.033,0.068,0.033,0.102,0.033h0.102c0.102,0.031,0.168,0.031,0.236,0.031c0.102,0,0.17,0,0.236-0.031h0.068
		c0.035,0,0.104,0,0.137-0.033h0.1c0.035,0,0.07-0.035,0.137-0.035c0,0,0.033,0,0.068-0.033c0.033,0,0.068-0.034,0.135-0.034
		c0,0,0.033-0.033,0.068-0.033c0.033,0,0.068-0.034,0.137-0.067h0.033c0.066-0.033,0.1-0.066,0.168-0.1l0.033-0.033
		c0.104-0.066,0.238-0.168,0.34-0.234c0.068-0.067,0.135-0.134,0.203-0.234c0.168-0.2,0.34-0.469,0.406-0.77
		c0.033-0.033,0.033-0.099,0.068-0.133C24.582,46.192,24.379,46.025,24.178,45.892"/>
	<path fill-rule="evenodd" clip-rule="evenodd"  d="M30.543,44.955v-0.034c0-0.1-0.033-0.232-0.033-0.367
		c-0.035-0.201-0.068-0.367-0.104-0.569V43.95c0-0.1-0.031-0.232-0.066-0.367c0-0.066-0.033-0.134-0.033-0.199
		c-0.035-0.135-0.068-0.269-0.137-0.4c-0.033-0.202-0.102-0.37-0.168-0.604c-0.102-0.234-0.203-0.469-0.307-0.734
		c-0.1-0.203-0.203-0.404-0.305-0.604c-0.066-0.135-0.135-0.268-0.201-0.401c-0.104-0.168-0.238-0.367-0.34-0.569
		c-0.137-0.2-0.271-0.4-0.406-0.602h3.352c-1.016-0.201-2.031-0.469-3.047-0.771h-0.881l-0.203-0.2h0.406
		c-0.303-0.1-0.609-0.232-0.914-0.334c-0.066-0.033-0.135-0.066-0.203-0.066c-0.271-0.101-0.541-0.233-0.813-0.334
		c-0.238-0.102-0.508-0.234-0.779-0.369c-0.168-0.066-0.338-0.133-0.506-0.234c-0.068-0.033-0.137-0.066-0.205-0.1
		c-0.201-0.102-0.406-0.2-0.576-0.301c-0.168-0.068-0.305-0.168-0.439-0.233c-0.17-0.103-0.338-0.202-0.508-0.302
		c-0.066-0.033-0.135-0.067-0.17-0.102c-0.17-0.1-0.338-0.2-0.51-0.3c-0.133-0.101-0.268-0.168-0.402-0.268
		c-0.068-0.067-0.17-0.101-0.238-0.167c-0.135-0.102-0.303-0.2-0.439-0.303c-0.068-0.066-0.137-0.133-0.236-0.166
		c-0.137-0.135-0.272-0.234-0.442-0.369c-0.102-0.064-0.236-0.166-0.339-0.267c-0.102-0.067-0.203-0.167-0.304-0.233
		c-0.067-0.067-0.17-0.168-0.237-0.234c-0.169-0.134-0.306-0.269-0.441-0.402c-0.135-0.133-0.27-0.233-0.405-0.368
		c-0.136-0.134-0.271-0.267-0.407-0.399c-0.067-0.102-0.134-0.168-0.202-0.234c-0.17-0.168-0.306-0.334-0.475-0.503
		c0,0,0-0.034-0.032-0.034c-0.068-0.098-0.171-0.2-0.238-0.3c-0.171-0.2-0.34-0.401-0.508-0.636
		c-0.102-0.134-0.204-0.268-0.306-0.367c-0.136-0.201-0.271-0.369-0.405-0.535c-0.103-0.168-0.237-0.335-0.34-0.535
		c0,0,0,0.066-0.033,0.2v0.201v0.167c0,0,0,0.033-0.034,0.033v0.167v0.034c0,0.101-0.034,0.232-0.034,0.367
		c0,0.068-0.033,0.134-0.033,0.234c0,0.1-0.035,0.233-0.035,0.369c-0.033,0.1-0.033,0.232-0.065,0.367c0,0.066,0,0.168-0.034,0.232
		c0,0.102-0.034,0.236-0.034,0.336v0.033c-0.034,0.133-0.067,0.268-0.067,0.368c-0.035,0.101-0.035,0.167-0.068,0.233
		c-0.033,0.269-0.068,0.502-0.136,0.77c-0.034,0.067-0.034,0.134-0.068,0.201c-0.033,0.268-0.102,0.501-0.169,0.769
		c-0.034,0.067-0.067,0.134-0.067,0.2c-0.102,0.27-0.17,0.536-0.271,0.771c-0.033,0.066-0.033,0.134-0.067,0.2
		c-0.067,0.135-0.102,0.268-0.169,0.401v0.034c-0.068,0.1-0.102,0.232-0.17,0.335c-0.034,0.065-0.068,0.165-0.102,0.233
		c-0.169,0.268-0.305,0.535-0.474,0.77c-0.068,0.033-0.102,0.1-0.135,0.133l-0.136-0.133c-0.102-0.168-0.305-0.402-0.509-0.77
		c-0.033-0.068-0.067-0.134-0.135-0.233c0-0.034-0.033-0.103-0.068-0.135v-0.034c-0.033-0.033-0.067-0.1-0.102-0.166
		c-0.033-0.068-0.067-0.135-0.067-0.201c-0.033-0.067-0.068-0.133-0.101-0.201c-0.035-0.1-0.069-0.167-0.102-0.233
		c-0.035-0.101-0.068-0.201-0.104-0.335l-0.033-0.032c-0.034-0.134-0.067-0.269-0.137-0.403c0-0.066-0.031-0.133-0.066-0.2
		c-0.033-0.099-0.033-0.233-0.067-0.335l-0.034-0.033c-0.033-0.133-0.067-0.267-0.101-0.4c0-0.067-0.035-0.134-0.035-0.201
		c-0.067-0.234-0.135-0.501-0.169-0.77c0-0.066-0.034-0.133-0.034-0.199c-0.033-0.102-0.033-0.201-0.067-0.303v-0.1
		c-0.033-0.1-0.033-0.234-0.068-0.369c0-0.064-0.034-0.166-0.034-0.232c-0.034-0.234-0.066-0.469-0.1-0.736
		c0-0.234-0.035-0.467-0.068-0.703c0,0-0.068,0.236-0.169,0.703c-0.035,0.201-0.103,0.469-0.17,0.736v0.032
		c0,0.067,0,0.136-0.035,0.2c-0.033,0.102-0.033,0.236-0.067,0.369c0,0.133-0.033,0.234-0.068,0.402c0,0.066,0,0.133-0.033,0.199
		c0,0.101-0.032,0.234-0.032,0.367c-0.068,0.402-0.136,0.871-0.17,1.372c-0.034,0.067-0.034,0.167-0.034,0.235
		c0,0.133-0.033,0.234-0.033,0.368c0,0.133-0.034,0.233-0.034,0.367c0,0.066,0,0.134-0.034,0.2v0.033v0.268
		c0,0.066,0,0.135-0.033,0.234v0.235c-0.034,0.334-0.034,0.634-0.034,0.968v0.035c-0.033,0.067-0.033,0.133-0.033,0.2v0.769
		c0,0.302-0.035,0.637-0.035,0.971c0.035,0,0,0,0,0h0.035v0.971c0,0.701,0.033,1.404,0.067,2.173
		c0.033,0.301,0.067,0.636,0.067,0.97c0.034,0.302,0.067,0.637,0.102,0.971s0.066,0.635,0.102,0.971c0,0,0.575-0.135,1.389-0.604
		h0.033c0.066-0.033,0.102-0.066,0.169-0.1h0.034c0.033-0.034,0.102-0.1,0.169-0.133h0.034c0.035-0.035,0.103-0.102,0.17-0.135
		c0.102-0.068,0.203-0.133,0.271-0.201c0.067-0.066,0.135-0.101,0.203-0.166c0.034,0,0.034,0,0.034-0.034
		c0.067-0.033,0.135-0.1,0.203-0.168l0.406-0.401l0.204-0.199c0.27-0.302,0.507-0.637,0.744-1.004
		c0.102-0.102,0.17-0.234,0.237-0.367c0.202-0.302,0.372-0.604,0.541-0.971v-0.033c0.068-0.102,0.103-0.234,0.171-0.368
		c0.032-0.068,0.065-0.134,0.065-0.2c0.068-0.101,0.103-0.234,0.137-0.336c0.033-0.033,0.033-0.066,0.033-0.1
		c0.067-0.168,0.136-0.367,0.171-0.535c0.102-0.302,0.202-0.635,0.271-0.971c0.032-0.168,0.067-0.301,0.101-0.467
		c0,0,0.035,0.166,0.102,0.467h0.948c-0.136-0.266-0.271-0.501-0.373-0.769h-0.541c0-0.067,0.033-0.133,0.067-0.2h0.374
		c-0.068-0.135-0.136-0.301-0.204-0.436l0.034-0.334v-0.233l0.067-0.771v-0.2l0.034-0.335l0.068-1.271
		c0,0.066,0.134,0.502,0.439,1.204c0.033,0.066,0.067,0.133,0.103,0.167v0.033c0.067,0.134,0.136,0.268,0.202,0.401v0.033
		c0.066,0.102,0.135,0.234,0.202,0.334v0.034c0.103,0.167,0.204,0.369,0.34,0.603c0.068,0.101,0.136,0.233,0.201,0.367
		c0.068,0.135,0.171,0.268,0.238,0.402c0.136,0.167,0.237,0.368,0.373,0.535c0,0.033,0.034,0.033,0.034,0.066
		c0.066,0.135,0.169,0.234,0.236,0.367c0.068,0.068,0.103,0.135,0.169,0.2c0.068,0.136,0.17,0.235,0.272,0.368
		c0.1,0.135,0.168,0.268,0.27,0.402c0.068,0.066,0.102,0.135,0.169,0.201c0.204,0.268,0.407,0.501,0.61,0.77
		c0.068,0.066,0.135,0.132,0.17,0.2c0.203,0.267,0.439,0.534,0.678,0.769c0.066,0.067,0.102,0.134,0.17,0.236
		c0.135,0.098,0.234,0.232,0.338,0.367c0,0,0.033,0,0.033,0.033c0.102,0.1,0.238,0.232,0.34,0.334
		c0.066,0.1,0.133,0.166,0.201,0.233c0.137,0.134,0.236,0.234,0.373,0.37c0.135,0.132,0.236,0.266,0.373,0.4
		c0.066,0.065,0.133,0.133,0.238,0.199c0.1,0.135,0.234,0.234,0.371,0.367l0.033,0.034c0.104,0.103,0.236,0.235,0.373,0.368
		c0.338,0.301,0.711,0.636,1.084,0.97c0.1,0.067,0.168,0.135,0.236,0.202c0.508,0.467,1.051,0.902,1.625,1.371h0.035
		c0.236,0.201,0.473,0.401,0.744,0.602c0.17,0.133,0.338,0.233,0.475,0.367c0.271,0.201,0.541,0.402,0.813,0.604
		c0.033,0.033,0.102,0.066,0.135,0.1c0-0.033,0.035-0.066,0.066-0.1c0.07-0.135,0.137-0.335,0.205-0.57
		c0.033-0.064,0.068-0.133,0.068-0.2c0.066-0.134,0.102-0.267,0.135-0.435c0.035-0.1,0.066-0.234,0.066-0.334v-0.033
		c0.068-0.201,0.068-0.402,0.104-0.604c0-0.1,0.033-0.232,0.033-0.367v-0.4V44.955z"/>
</g>
<g>
	<path fill-rule="evenodd" clip-rule="evenodd"  d="M70.688,37.06c-1.584,2.826-4.057,4.082-7.104,4.494l-0.553-1.861
		c3.576-1.015,3.24-5.023,3.24-10.193V8.602c0.936,0.073,1.848,0.193,2.785,0.193c0.936,0,1.871-0.12,2.783-0.193v20.196
		C71.84,31.552,71.961,34.886,70.688,37.06"/>
	<path fill-rule="evenodd" clip-rule="evenodd"  d="M103.145,33.412v1.546c-1.393,0.555-2.762,0.895-3.963,0.895
		c-3.936,0-4.824-2.706-4.824-6.354V18.99h-2.592c0.119-0.894,0.119-1.619,0-2.513h2.592v-4.42c1.703-0.725,3.432-1.546,5.256-2.44
		v6.86h3.242c-0.121,0.894-0.121,1.619,0,2.513h-3.242v11.185C99.613,32.881,99.758,34.329,103.145,33.412"/>
	<path fill-rule="evenodd" clip-rule="evenodd"  d="M114.449,33.314c1.584,0,3.338-0.749,4.539-1.763l0.455,0.338
		l-0.84,2.198c-1.561,1.111-3.65,1.764-5.545,1.764c-6.41,0-9.699-3.913-9.699-10.315c0-5.483,3.24-9.422,8.859-9.422
		c6.072,0,8.352,4.276,7.92,9.906h-11.041C108.977,30.054,110.369,33.314,114.449,33.314 M112.266,17.902
		c-2.834,0-3.098,4.154-3.168,6.233h5.713C114.811,22.057,114.57,17.902,112.266,17.902"/>
	<path fill-rule="evenodd" clip-rule="evenodd"  d="M85.715,33.314c1.586,0,3.313-0.749,4.514-1.763l0.48,0.338
		l-0.865,2.198c-1.535,1.111-3.623,1.764-5.52,1.764c-6.41,0-9.697-3.913-9.697-10.315c0-5.483,3.238-9.422,8.857-9.422
		c6.049,0,8.328,4.276,7.92,9.906H80.338C80.219,30.054,81.611,33.314,85.715,33.314 M83.508,17.902
		c-2.809,0-3.098,4.154-3.17,6.233h5.715C86.053,22.057,85.836,17.902,83.508,17.902"/>
	<path fill-rule="evenodd" clip-rule="evenodd"  d="M125.012,16.67c0.889,0,1.801-0.121,2.689-0.193v4.856
		c0.816-2.851,2.545-5.218,6.361-5.218c-0.193,1.86-0.313,3.646-0.193,5.339l-0.359,0.313c-0.504-0.338-1.369-0.508-1.994-0.508
		c-1.701,0-3.119,0.895-3.576,2.586c-0.357,1.136-0.238,3.31-0.238,4.564v7.104c-0.889-0.098-1.801-0.219-2.689-0.219
		c-0.887,0-1.801,0.121-2.688,0.219V16.477C123.211,16.55,124.125,16.67,125.012,16.67"/>
	<path fill-rule="evenodd" clip-rule="evenodd"  d="M137.734,16.67c0.865,0,1.73-0.121,2.594-0.193v2.899
		c1.559-1.837,3.576-3.261,6-3.261c4.92,0,6.17,3.188,6.17,7.899v11.5c-0.912-0.098-1.799-0.219-2.713-0.219
		c-0.889,0-1.775,0.121-2.688,0.219v-9.785c0-3.647-0.457-6.305-3.193-6.305c-3.385,0-3.385,4.59-3.385,7.055v9.035
		c-0.912-0.098-1.801-0.219-2.688-0.219c-0.914,0-1.803,0.121-2.689,0.219V16.477C135.982,16.55,136.848,16.67,137.734,16.67"/>
	<path fill-rule="evenodd" clip-rule="evenodd"  d="M165.557,33.314c1.609,0,3.361-0.749,4.586-1.763l0.455,0.338
		l-0.84,2.198c-1.584,1.111-3.697,1.764-5.617,1.764c-6.529,0-9.865-3.913-9.865-10.315c0-5.483,3.313-9.422,9-9.422
		c6.146,0,8.475,4.276,8.043,9.906h-11.234C159.965,30.054,161.381,33.314,165.557,33.314 M163.301,17.902
		c-2.857,0-3.121,4.154-3.217,6.233h5.809C165.893,22.057,165.652,17.902,163.301,17.902"/>
	<path fill-rule="evenodd" clip-rule="evenodd"  d="M174.104,28.798V8.601c0.959,0.074,1.895,0.194,2.832,0.194
		c0.959,0,1.896-0.12,2.832-0.194v20.897c0,5.17-0.334,9.18,3.289,10.194l-0.553,1.86c-3.096-0.41-5.592-1.667-7.225-4.493
		C174.006,34.886,174.104,31.552,174.104,28.798"/>
	<path fill-rule="evenodd" clip-rule="evenodd"  d="M77.289,6.983l-1.246,6.644l1.512,0.628l3.744-7.079
		C81.299,7.176,78.803,7.539,77.289,6.983"/>
</g>
</svg>
