<?xml version="1.0" encoding="utf-8"?>
<!-- Generator: Adobe Illustrator 15.0.2, SVG Export Plug-In . SVG Version: 6.00 Build 0)  -->
<!DOCTYPE svg PUBLIC "-//W3C//DTD SVG 1.1//EN" "http://www.w3.org/Graphics/SVG/1.1/DTD/svg11.dtd">
<svg version="1.1" id="Layer_1" xmlns="http://www.w3.org/2000/svg" xmlns:xlink="http://www.w3.org/1999/xlink" x="0px" y="0px"
	 width="470.986px" height="462.98px" viewBox="0 0 470.986 462.98" enable-background="new 0 0 470.986 462.98"
	 xml:space="preserve">
<g>
	<path  d="M127.833,50.701h31.639c-1.292-2.544-2.583-4.782-3.874-7.332h-29.057
		C126.866,45.605,127.19,48.157,127.833,50.701"/>
	<path  d="M130.094,59.949h35.188c-1.615-2.229-3.229-4.787-4.84-7.338h-32.279
		C128.802,54.848,129.451,57.4,130.094,59.949"/>
	<path  d="M164.635,87.69h29.696c-1.934-1.282-5.488-3.505-10.005-7.011h-44.551c0.968,1.273,1.935,2.535,2.907,4.139
		C150.756,85.78,158.179,86.729,164.635,87.69"/>
	<path  d="M133.645,69.199h39.062c-1.939-2.229-4.198-4.789-6.132-7.331h-35.837
		C131.705,64.41,132.678,66.648,133.645,69.199"/>
	<path  d="M307.317,69.199c0-2.229,0.324-4.789,0.649-7.331h-33.255c0,0.313-0.324,0.634-0.324,0.954v0.314
		c1.934,2.234,3.557,4.146,5.164,6.063H307.317z"/>
	<path  d="M235.975,22.639c0.647,0.642,1.298,1.28,1.934,1.918l6.139,6.062c1.291,1.271,2.259,2.227,3.55,3.5
		c1.292,0.961,2.266,2.244,3.55,3.505c1.298,1.276,2.589,2.564,3.549,3.833c0.649,0.635,1.299,1.275,1.947,1.916
		c1.284,1.271,2.258,2.545,3.549,3.516c0.96,1.262,2.259,2.544,3.226,3.812c0.324,0.322,0.636,0.646,0.968,0.962
		c1.291-0.64,2.59-1.589,3.549-2.551c0.648-0.32,0.975-0.961,1.623-1.596c0.644-0.627,0.967-1.271,1.283-1.917
		c0.975-1.275,1.615-2.864,1.939-4.142v-0.641l0.975-2.872v-0.32c0-1.589,0.312-3.185,0.312-4.778c0-2.858-0.635-5.729-1.608-7.977
		v-0.312c-0.323-0.638-0.643-1.276-0.967-1.918c-0.647-1.274-1.29-2.553-2.258-3.826h-0.325c-0.323-0.633-0.646-1.27-1.298-1.581
		v-0.32c-2.899-2.552-6.456-4.796-10.005-5.743c-0.316,0-0.316,0-0.316-0.313c-0.968,0-1.616-0.321-2.591-0.321h-0.635
		c-0.976-0.327-1.939-0.327-2.914-0.327c-0.96,0-1.935,0-2.906,0.327h-0.644c-0.967,0-1.608,0.321-2.582,0.635h-0.324
		c-0.96,0.313-1.608,0.637-2.583,0.947c-0.967,0.321-1.935,0.64-2.574,1.276c-1.939,0.968-3.557,2.556-5.173,3.84v0.313
		c-0.642,0.637-1.283,1.27-1.607,2.226C233.717,20.736,234.684,21.685,235.975,22.639"/>
	<path  d="M174.639,71.111h-40.027c1.291,2.551,2.583,5.094,3.874,7.331h43.583
		C179.804,76.527,177.222,73.983,174.639,71.111"/>
	<path  d="M308.288,97.252c-0.323-2.222-0.647-4.466-0.974-7.33h-12.264c1.615,2.554,3.226,5.108,4.841,7.33H308.288z
		"/>
	<path  d="M42.288,311.212h44.227c0.316-2.552,0.642-4.788,0.967-7.34h-30.99
		C52.293,306.424,47.453,308.981,42.288,311.212"/>
	<path  d="M26.468,329.703h48.748c3.226-1.596,6.456-3.506,9.682-5.734v-1.598H29.05L26.468,329.703z"/>
	<path  d="M31.956,314.719l-2.259,5.741H85.22c0.324-2.552,0.648-4.788,0.974-7.34H37.121
		C35.505,313.756,33.572,314.402,31.956,314.719"/>
	<path  d="M59.397,301.963h28.407c0.323-2.551,0.966-5.104,1.291-7.334H69.085
		C66.17,296.859,62.946,299.412,59.397,301.963"/>
	<path  d="M25.823,331.616l-2.581,7.331h1.291h20.658c7.423-0.955,16.469-2.865,25.824-7.331H25.823z"/>
	<path  d="M30.988,149.23l-7.423,3.825h14.847C35.835,151.78,33.57,150.827,30.988,149.23"/>
	<path  d="M84.898,378.488c-0.323-0.635-0.323-1.595-0.323-2.23c-0.318-2.241-0.318-4.778-0.644-7.339v-1.908
		c0-1.274,0-2.559-0.324-3.507v-3.823v-1.926v-7.323v-2.237c0-2.23,0-4.78,0.324-7.021v-4.451c-0.967-0.32-1.939-0.32-2.907-0.32
		c-0.967,0-1.939,0-2.583,0.32H77.8c-0.974,0-1.291,0.313-1.939,0.313c-0.324,0-0.648,0-0.648,0.322
		c-0.643,0-1.607,0.319-2.258,0.625h-0.325c-1.934,0.646-3.874,1.925-5.481,2.887c-0.648,0.627-1.291,1.271-1.939,1.588
		c-0.317,0.644-0.968,1.277-1.616,1.909c-0.317,0.644-0.967,0.963-1.292,1.597c0,0.321-0.323,0.321-0.323,0.321
		c-0.643,1.275-1.609,2.55-2.259,4.146c0,0.627-0.317,1.273-0.644,1.596c0,0.634,0,0.955-0.323,1.275v0.636
		c-0.316,0.634-0.316,0.954-0.316,1.596v0.319c-0.325,0.635-0.325,1.273-0.325,1.901v1.282v0.644c0,3.186,0.966,6.377,2.258,9.238
		c0.325,0.644,0.643,1.283,1.291,1.91c0.318,0.648,0.643,1.282,1.292,1.925c0.324,0.633,0.967,1.263,1.291,1.908h0.325
		c2.258,2.544,5.165,4.147,8.39,5.422l0.324,0.309c0.643,0,0.967,0.318,1.291,0.318c0.325,0.328,0.968,0.328,1.616,0.328
		c0.325,0,0.325,0.32,0.643,0.32h1.292c0.323,0,0.648,0.32,0.648,0.32h2.258c1.291,0,2.583,0,3.874-0.32v-1.596v-1.274H84.898z"/>
	<path  d="M154.95,41.458c-0.967-2.551-1.934-4.788-2.907-7.332h-25.823c0,1.91,0,4.461,0.324,7.332H154.95z"/>
	<path  d="M309.901,52.612h-32.93c-0.649,2.229-1.291,4.788-1.935,7.34h33.246
		C308.928,57.4,309.253,55.164,309.901,52.612"/>
	<path  d="M407.07,164.217h-26.798c-0.648,2.553-0.975,4.788-1.609,7.331h19.693
		C400.932,169.005,403.839,166.768,407.07,164.217"/>
	<path  d="M440.316,145.725h-57.139c-0.324,2.229-0.644,4.778-0.966,7.332h43.259
		C429.661,150.82,440.316,145.725,440.316,145.725"/>
	<path  d="M421.271,154.967h-39.386c-0.645,2.23-0.967,4.789-1.291,7.341h29.056
		C413.198,159.756,417.073,157.197,421.271,154.967"/>
	<path  d="M396.419,173.459h-18.084c-0.645,2.554-1.284,4.789-1.936,7.334h13.237
		C391.57,178.561,393.835,176.011,396.419,173.459"/>
	<path  d="M281.169,71.111c1.934,2.551,3.873,5.094,5.489,7.331h20.011c0-2.237,0.322-4.78,0.322-7.331H281.169z"/>
	<path  d="M448.068,123.4c0,0-13.235-2.55-31.307,1.596h30.98L448.068,123.4z"/>
	<path  d="M385.441,124.994v0.636c1.615,0.646,3.226,0.96,5.808,0.96c2.581,0,5.173-0.635,7.746-1.596
		c1.936-0.635,3.883-1.595,5.489-2.871c1.94-1.273,3.227-2.87,4.523-4.461c0.642-0.641,0.966-1.268,1.606-1.916
		c0.324-0.634,0.649-1.273,0.969-1.596v-0.313c0.322-0.313,0.647-0.962,0.647-1.596l0.324-0.322c0-0.634,0.324-0.954,0.324-1.589
		c0.322-0.313,0.322-0.96,0.635-1.595c0-0.963,0.325-1.596,0.325-2.229v-2.56v-2.55c0-0.635-0.325-1.589-0.325-2.231
		c-0.313-1.272-0.635-2.222-0.959-3.189c-0.324-0.313-0.324-0.637-0.324-0.955c-0.325-0.634-0.647-0.947-0.967-1.58
		c-0.649-1.283-1.292-2.566-2.258-3.521c-1.94-2.544-4.198-4.46-7.105-6.049c-0.647-0.328-1.291-0.647-1.934-0.962h-0.324
		c-0.649-0.322-1.291-0.322-1.94-0.642h-0.322c-0.645-0.313-1.284-0.313-1.609-0.637h-1.298c-0.317,0-0.645-0.318-0.96-0.318h-2.267
		c-2.258,0-4.189,0.318-5.487,0.642v3.506c0,0.635,0.324,1.604,0.324,2.23v2.229v3.191v1.273c0,0.954,0.323,1.909,0.323,2.88v1.9
		v7.341c0,0.636-0.323,1.269-0.323,1.909v7.331c0,0.648-0.324,1.275-0.324,1.916C385.76,120.213,385.441,122.443,385.441,124.994"/>
	<path  d="M393.186,134.243h51.324l2.589-7.331h-37.127C404.489,128.821,398.991,131.052,393.186,134.243"/>
	<path  d="M388.018,182.709H376.08c-0.646,2.552-1.29,5.104-1.938,7.339h8.722
		C383.82,188.445,385.442,185.9,388.018,182.709"/>
	<path  d="M71.342,292.395h18.077c0.643-2.227,1.292-4.782,1.616-7.333h-12.27
		C76.506,287.612,74.249,289.85,71.342,292.395"/>
	<path  d="M306.992,87.69c0-2.23-0.322-4.476-0.322-7.011h-18.396c1.935,2.535,3.55,4.778,5.158,7.011H306.992z"/>
	<path  d="M313.126,43.37h-32.922c-0.975,2.226-1.935,4.782-2.582,7.332h32.93
		C311.193,48.152,312.159,45.922,313.126,43.37"/>
	<path  d="M316.997,34.121h-32.271c-1.299,2.231-2.583,4.468-3.881,7.339h32.929
		C314.747,38.909,315.708,36.353,316.997,34.121"/>
	<path  d="M443.549,136.476H389.96c-1.616,0.641-4.198,4.146-6.456,6.694v0.639h57.786L443.549,136.476z"/>
	<path  d="M407.387,269.437c-1.936,1.597-3.549,3.19-5.482,4.475h23.884c-5.487-1.923-11.296-3.513-17.752-4.795
		C408.035,269.116,408.035,269.437,407.387,269.437"/>
	<path  d="M436.768,311.212h7.747l15.17-7.34H415.46C422.558,305.148,429.661,307.706,436.768,311.212"/>
	<path  d="M431.276,248.072c-2.9,2.552-5.48,4.789-7.747,7.339c-0.967,0.643-1.607,1.271-2.258,1.91
		c-0.975,0.954-2.258,1.923-3.231,2.87c0.324,0.635,0.976,1.596,1.622,2.238c1.284,1.9,2.9,3.816,4.833,5.094
		c0.325,0.313,0.649,0.313,0.976,0.635c0.647,0.326,0.967,0.648,1.607,0.969c0.648,0.309,0.976,0.628,1.623,0.628
		c0.317,0.321,0.644,0.321,0.959,0.642c0.649,0.322,0.976,0.322,1.616,0.635h0.649c0.966,0.319,1.933,0.649,2.582,0.649h0.967
		c0.967,0.317,1.615,0.317,2.582,0.317h2.258c0.324,0,0.649-0.317,0.974-0.317h1.292c0.317,0,0.644-0.33,0.968-0.33
		c0.315,0,0.643-0.319,0.967-0.319c0.325,0,0.974-0.313,1.298-0.313c0.313,0,0.313-0.322,0.636-0.322
		c0.649,0,0.976-0.318,1.298-0.318c0.325-0.321,0.325-0.321,0.645-0.321c0.324-0.319,0.974-0.628,1.291-0.628
		c0-0.318,0.324-0.318,0.324-0.318c0.643-0.322,0.967-0.648,1.291-0.968c0.323,0,0.323,0,0.323-0.315
		c4.198-2.871,7.424-7.332,8.715-12.112c0-0.962,0.323-1.917,0.323-2.861c0.317,0,0.317,0,0.317-0.322v-2.87v-1.283
		c0-0.634,0-1.272-0.317-2.224c0-0.646,0-1.282-0.323-1.923c0-0.635-0.323-0.947-0.323-1.271c-0.325-0.32-0.325-0.642-0.325-0.961
		c-0.643-1.903-1.608-3.508-2.582-5.095c-0.643-0.643-0.967-1.283-1.609-1.916l-1.938-1.911c0,0-0.325-0.327-0.649-0.327
		c-0.315-0.634-0.635-0.954-1.284-1.273c-0.647-0.635-1.614-0.954-2.258-1.592c-1.291,1.271-2.265,2.544-3.55,3.827
		c-0.973,0.954-2.265,2.23-3.229,3.192c-0.648,0.946-1.615,1.587-2.267,2.223c-2.258,2.552-4.84,4.781-7.104,7.024
		C432.573,246.798,431.927,247.438,431.276,248.072"/>
	<path  d="M337.662,406.23h-34.545c1.291,2.222,2.913,4.787,4.522,7.33h31.955
		C338.953,411.018,338.313,408.78,337.662,406.23"/>
	<path  d="M373.816,294.625c-5.164,3.192-9.362,5.424-12.263,7.34h19.69c5.809-0.642,12.912-0.642,20.335,0h62.305
		c-0.649-0.642-2.59-3.513-6.456-7.34H373.816z"/>
	<path  d="M339.924,415.471H308.61c1.291,2.23,2.582,4.789,3.549,7.334h29.058
		C340.89,420.574,340.572,418.023,339.924,415.471"/>
	<path  d="M338.628,441.302h2.258c0-0.955,0.325-3.507,0.647-7.332h-24.53L338.628,441.302z"/>
	<path  d="M313.126,424.721c0.975,2.229,1.935,4.789,2.584,7.338h25.822c0-2.234,0-4.465-0.324-7.338H313.126z"/>
	<path  d="M386.405,392.835c0-0.318,0-0.641,0.325-0.954v-0.641c0.324-0.629,0.324-1.277,0.324-1.597v-0.313
		c0.325-0.962,0.325-2.229,0.325-3.514v-0.313c0-0.956,0-1.918-0.325-2.872c-13.563,0.32-29.056,0.32-45.192-0.963
		c0,0.645,0,1.283-0.324,1.917v2.229c0,1.282,0.324,2.552,0.324,3.514v0.313c0.317,0.317,0.317,0.968,0.317,1.597
		c0,0,0.325,0.319,0.325,0.641c0,0.313,0,0.636,0.315,0.954c0,0.637,0.324,0.962,0.324,1.282c0,0.313,0.324,0.313,0.324,0.627
		c0.647,1.596,1.299,2.879,2.258,4.147l0.325,0.318c0.322,0.637,0.647,0.963,1.291,1.604v0.306c0.647,0.321,0.974,0.963,1.615,1.282
		v0.313c0.643,0.323,1.291,0.964,1.939,1.283c1.608,1.271,3.549,2.227,5.481,3.191h0.323c0.649,0.307,1.291,0.307,2.26,0.629h0.322
		c0.649,0.32,1.291,0.32,1.94,0.641h0.643h2.582h2.582h0.649c0.642-0.318,1.284-0.318,1.934-0.641h0.649
		c0.642-0.322,1.291-0.322,1.933-0.629h0.325c0.643-0.32,1.615-0.643,2.265-0.967c1.284-0.639,2.26-1.276,3.227-2.227
		c0.642-0.321,1.291-0.96,1.933-1.283v-0.313c0.649-0.319,1.299-0.961,1.609-1.282c0-0.306,0-0.306,0.324-0.306
		c0.322-0.643,0.647-0.97,1.299-1.604v-0.318c0.966-1.271,1.606-2.554,2.258-4.147c0.317-0.313,0.317-0.313,0.317-0.627
		C386.08,393.797,386.08,393.47,386.405,392.835"/>
	<path  d="M64.562,192.277H58.43c1.608,0.313,3.225,0.635,4.84,0.954C63.595,192.912,63.92,192.594,64.562,192.277"/>
	<path  d="M40.672,214.274L40.672,214.274c1.291-1.276,2.583-2.226,3.55-3.506c0.648-0.643,1.298-1.282,2.265-1.91
		c1.291-1.282,2.575-2.56,3.874-3.832c1.291-1.275,2.259-2.545,3.55-3.506c-0.325-0.955-0.968-1.598-1.292-2.543
		c-0.325-0.321-0.643-0.648-0.968-1.282c-0.323,0-0.648-0.32-0.648-0.32c-0.324-0.32-0.643-0.643-0.967-0.956
		c-0.324-0.313-0.648-0.313-0.648-0.633c-0.325,0-0.968-0.313-1.292-0.644c-0.317,0-0.317-0.32-0.643-0.32
		c-0.648-0.313-0.968-0.313-1.292-0.633c-0.325,0-0.643,0-0.967-0.322c-0.324,0-0.974,0-1.292-0.318H42.93
		c-0.643-0.319-1.292-0.319-1.935-0.319c-0.324,0-0.648,0-0.967-0.31h-2.906h-2.258c-0.324,0.31-0.649,0.31-0.975,0.31H32.6
		c-0.643,0.319-0.968,0.319-1.616,0.64h-0.643c-0.648,0.322-1.292,0.645-1.615,0.645c-0.317,0-0.317,0-0.317,0.313
		c-0.649,0-1.291,0.32-1.939,0.649v0.313c-1.94,0.946-3.874,2.229-5.165,3.511l-0.325,0.314c-1.934,1.909-3.549,4.461-4.84,7.331
		c-0.324,0.634-0.643,1.276-0.643,1.916c-0.648,1.27-0.975,2.872-0.975,4.14c0,0.956-0.316,1.598-0.316,2.561
		c0,0.947,0.316,1.589,0.316,2.545c0.325,3.51,0.975,6.702,2.583,9.247c0.648,1.589,1.616,2.871,2.583,3.824
		c0.324,0.328,0.324,0.643,0.648,0.643c0.325,0.321,0.325,0.321,0.643,0.636c0.325,0.313,0.975,0.954,1.616,1.275
		c1.292-1.59,2.583-2.872,3.874-4.468c0.648-0.629,1.292-1.271,1.939-1.91c0.967-1.275,2.258-2.545,3.225-3.505
		c0.325-0.321,0.649-0.644,0.968-0.964c0.648-0.946,1.615-1.906,2.582-2.862c0.648-0.644,1.292-1.27,1.939-1.916
		C38.415,216.825,39.381,215.557,40.672,214.274"/>
	<path  d="M88.451,173.459H20.334c2.907,2.554,6.131,5.104,10.013,7.334h48.099
		C81.995,177.934,85.219,175.69,88.451,173.459"/>
	<path  d="M103.943,164.217H10.652c1.615,1.902,4.198,4.469,7.104,7.331h73.6
		C96.521,168.363,100.712,165.813,103.943,164.217"/>
	<path  d="M389.962,283.149h53.904c-3.874-2.55-8.396-5.102-13.229-7.331h-30.996
		C396.094,278.677,393.186,280.921,389.962,283.149"/>
	<path  d="M377.049,292.395h78.438c-2.258-2.227-5.165-4.782-8.714-7.333h-59.396
		C383.505,287.933,379.948,290.49,377.049,292.395"/>
	<path  d="M75.858,182.709H33.89c4.847,2.871,10.662,5.422,17.117,7.339H66.82
		C69.727,187.496,72.951,184.938,75.858,182.709"/>
	<path  d="M463.884,190.04c2.904-3.828,5.164-7.332,7.104-10.518c-0.324,0-0.324-0.32-0.646-0.32h-0.325
		c-0.644-0.642-1.615-0.962-2.899-1.269v-0.32c-1.299-0.321-2.583-0.969-4.197-1.603h-0.324c-1.615-0.637-3.558-1.27-5.489-1.592
		c0,0-0.324,0-0.324-0.313c-0.967,0-2.258-0.329-3.225-0.649c-7.431-1.272-17.437-1.901-28.731,0
		c-7.098,1.284-14.853,3.507-23.24,7.339c-6.456,2.865-12.911,6.377-20.019,11.157l-0.317,0.321h-7.755
		c-0.635,2.229-1.281,4.461-1.933,6.688l-2.583,2.553l-7.747,7.338l-7.747,7.332l-1.94,1.91l-2.258,1.923
		c0,0,0.644-0.648,1.291-1.923c0.325-0.313,0.649-0.948,0.649-1.263c0.967-1.604,1.934-3.513,2.898-6.068
		c1.3-2.872,2.906-6.691,4.197-11.159v-0.32c0.325-0.954,0.976-1.901,1.299-3.19v-0.313c0.317-0.964,0.636-2.231,0.959-3.507
		c0.649-1.91,0.977-3.513,1.3-5.422c0.316,0,0.316-0.32,0.316-0.32c0.324-1.276,0.649-2.544,0.649-3.826
		c0.315-0.643,0.315-1.273,0.642-1.91c0.325-0.961,0.325-2.235,0.649-3.506c0.315-1.281,0.643-2.549,0.643-3.513l0.324-0.32
		c0-0.633,0-1.272,0.324-1.901v-0.318c0-0.97,0.322-1.925,0.647-3.192v-0.313c0-0.967,0.313-2.242,0.313-3.512
		c0.322-1.919,0.647-3.515,0.974-5.431v-0.307c0.324-0.969,0.324-2.236,0.324-3.506c0.647-3.515,0.967-7.347,1.291-11.172v-0.313
		c0.325-2.237,0.325-4.782,0.647-7.019c0.645-9.248,0.969-19.133,0.969-29.97v-0.313c0-5.108,0-10.531-0.324-16.269v-2.235
		c0-2.23,0-4.772-0.325-7.021v-2.229c-0.317-2.864-0.317-6.058-0.642-9.248c0-3.185-0.325-6.057-0.649-9.247V59.63
		c-0.317-2.869-0.642-6.062-0.642-8.921v-0.327c-0.325-2.234-0.649-4.46-0.976-7.019V41.77v-0.31
		c-0.647-2.559-1.285-5.107-1.607-7.333c-0.324-0.961-0.648-1.923-0.648-2.868c0,0-0.967,0.318-2.259,0.626
		c-2.266,0.963-6.455,2.242-10.979,5.102h-0.315c-2.907,1.597-5.813,3.835-9.363,6.377c-0.324,0.322-0.974,0.969-1.291,1.29
		c-0.324,0-0.324,0.308-0.643,0.308l-1.615,1.598l-0.324,0.317c-0.647,0.644-1.291,0.962-1.616,1.59c-0.315,0-0.315,0.32-0.642,0.32
		c-1.94,2.244-4.198,4.467-6.132,7.338h-0.324c-0.649,1.283-1.616,2.553-2.583,3.82c-1.94,2.87-3.873,5.741-5.813,9.247
		c-0.968,1.916-1.615,3.506-2.584,5.424v0.32c-0.646,1.272-1.298,2.233-1.606,3.504c-0.649,1.924-1.298,3.514-1.94,5.423
		c0,0-0.322,0.314-0.322,0.635c-0.324,0.961-0.649,2.243-0.969,3.191c-0.647,1.916-1.291,3.506-1.615,5.106
		c-0.323,1.271-0.647,2.226-0.647,3.188c-0.325,0.319-0.325,0.641-0.325,1.268c-0.315,0.644-0.315,1.276-0.635,1.916
		c0,1.276-0.324,2.231-0.649,3.516c0,0-0.322-1.282-0.974-3.516h-7.423c1.938,2.872,3.225,5.423,4.198,7.34h3.225l-0.316,1.909
		h-1.614c0.642,1.283,0.966,2.23,0.966,2.23l-1.291,18.503l-0.317,5.095v2.23l-0.323,6.057c-0.324-1.275-0.648-2.229-0.975-3.186
		c-0.648-1.598-0.967-3.191-1.608-5.104c-0.647-0.962-0.975-2.229-1.614-3.506c-0.325-1.282-0.976-2.557-1.291-3.512v-0.32
		c-0.967-1.582-1.94-3.506-2.907-5.423c-0.644-1.909-1.616-3.819-2.907-5.729c-1.283-2.559-2.582-4.789-4.189-7.34
		c-0.324-0.642-0.648-1.272-0.976-1.909h-0.315c-1.94-3.188-3.882-6.384-6.141-9.256c-1.946-3.185-4.197-6.376-6.771-9.562
		c-1.623-2.23-3.557-4.772-5.489-7.021h-0.324c-0.324-0.944-0.967-1.595-1.615-2.229c-1.935-2.549-3.873-4.774-6.133-7.332
		c-0.646-0.633-1.298-1.274-1.606-1.916h-0.324c-1.939-2.543-4.198-4.781-6.456-7.331c-0.648-0.642-1.298-1.27-1.939-1.916
		c-2.259-2.537-4.841-5.104-7.104-7.333c-0.643-0.633-1.284-1.274-1.935-1.902c-2.582-2.563-5.164-5.105-7.431-7.346
		c-5.807-5.408-11.289-10.516-16.461-14.978c-1.607-1.281-2.905-2.559-4.197-3.506v-0.319c-0.643-0.648-1.607-1.282-2.259-1.925
		c-1.607-1.262-3.225-2.545-4.516-3.825c-2.266-1.909-4.522-3.813-6.78-5.415c-2.582-2.238-4.841-4.146-7.104-5.741
		c-2.898-2.225-5.165-4.141-7.099-5.409c-0.324,0-0.647-0.32-0.647-0.646c-0.317,0-0.645-0.322-0.968-0.646
		c-0.323,0-0.323-0.312-0.643-0.312l-0.325-0.321c0,0-0.323,0-0.323-0.321l-0.323,0.321c-0.325,0.321-0.645,1.276-1.616,2.871
		c0,0.321,0,0.635-0.317,0.954c-0.323,0.636-0.647,1.283-0.974,1.911c0,0.642-0.317,0.961-0.317,1.597h-0.324
		c0,0.646-0.323,1.281-0.323,1.596l-0.317,0.319c-1.291,3.826-2.59,8.936-3.23,14.991c-0.324,3.189-0.324,6.05-0.324,9.566
		c0,0.948,0.324,2.226,0.324,3.182v0.325c0,1.27,0.323,2.224,0.323,3.507v0.319c0.317,1.588,0.645,3.499,0.968,5.414
		c0.323,1.91,0.648,3.833,1.291,5.735c0.324,0.957,0.648,2.229,0.968,3.513c1.291,4.788,3.229,9.885,5.813,14.983v0.318
		c1.292,2.237,2.583,4.465,3.874,7.014c0.324,0.636,0.645,1.284,1.291,2.229c1.616,2.561,3.227,5.423,5.165,8.294l0.645,0.962
		h-21.951c13.562,2.871,21.951,5.735,25.183,7.324h1.291l0.645,0.644l1.291,1.272l0.974,0.956l17.104,17.541v0.315v-0.315
		c-4.841-2.229-9.998-4.146-14.846-5.743h-0.325c-1.606-0.634-3.225-1.272-5.163-1.917c-4.197-1.272-8.391-2.542-12.589-3.497
		c-1.615-0.636-3.229-0.962-4.848-1.279h-0.643c-3.226-0.956-6.455-1.6-10.005-2.227h-0.324c-1.615-0.319-3.231-0.646-4.841-0.962
		c-3.558-0.641-7.104-1.276-10.338-1.596h-0.315c-15.17-2.23-30.022-3.192-43.901-3.192c-20.342-0.317-38.418,0.644-50.682,1.916
		c-9.363,0.956-15.501,1.918-16.792,1.918h-0.317h-0.325h0.325c-4.521,0.954-9.362,1.916-13.879,2.863c0,0,0.317,0.962,0.643,2.559
		c0.323,0.637,0.323,1.27,0.643,1.909c0.325,0.644,0.325,0.963,0.648,1.588c0.316,0.645,0.643,0.963,0.643,1.6l0.325,0.317
		c0,0.328,0.323,0.962,0.647,1.599v0.319c0.968,1.598,1.936,3.505,3.227,5.422l0.324,0.313c0.323,0.64,0.643,0.953,0.967,1.596
		c0,0,0,0.313,0.324,0.313c0.324,0.647,0.643,0.969,0.968,1.596l0.322,0.321c0.969,1.272,1.94,2.558,2.907,3.506
		c0.325,0.64,0.967,1.274,1.609,1.923c0.323,0.627,0.647,0.949,1.291,1.271c0,0.316,0.325,0.64,0.325,0.64l1.614,1.597l0.325,0.313
		c1.291,1.272,2.582,2.558,4.191,3.826c1.298,1.273,2.906,2.234,4.521,3.505h0.325c0.643,0.643,1.616,1.274,2.258,1.924h0.325
		c0.649,0.628,1.616,1.269,2.583,1.901c2.258,1.281,4.521,2.553,7.098,3.826c1.291,0.647,2.59,1.274,3.881,1.915h0.317
		c1.291,0.637,2.258,1.277,3.874,1.589c0,0.328,0,0.328,0.324,0.328c1.292,0.321,2.583,0.949,3.874,1.59
		c1.933,0.643,4.198,1.275,6.131,1.925c1.939,0.628,3.874,0.945,5.813,1.583c0.643,0,1.291,0.316,1.934,0.316
		c0.648,0.324,1.292,0.324,2.265,0.637c1.291,0.326,2.9,0.647,4.841,0.97c0,0-29.057,8.278-60.688-3.506H19.368l-11.621,5.407
		c0,0,0.324,0.647,1.292,1.915h99.099c3.556-1.596,5.172-1.915,5.172-1.915l33.57-0.636c-6.131,2.551-12.271,5.11-18.076,7.979
		c-3.874,1.903-7.755,3.825-11.297,5.729c-2.265,1.284-4.197,2.552-6.455,3.833c-1.94,0.948-4.198,2.23-6.14,3.506
		c-0.967,0.637-2.258,1.27-3.23,1.91c-1.934,1.282-3.55,2.55-5.481,3.826c-0.324,0-0.324,0-0.649,0.32
		c-1.608,0.962-3.225,2.229-4.84,3.186c-0.967,0.647-1.939,1.596-2.906,2.236c-1.609,0.955-3.226,2.229-4.841,3.507
		c-0.324,0-0.324,0-0.324,0.312c-2.583,1.599-4.841,3.515-7.424,5.425c-1.291,0.962-2.906,2.242-4.197,3.513
		c-0.325,0-0.325,0.313-0.643,0.313c-3.557,2.871-7.104,5.742-10.33,8.929c-0.324,0-0.324,0.319-0.648,0.319
		c-1.292,1.275-2.583,2.244-3.549,3.506c-2.266,1.924-3.874,3.513-5.813,5.43c-0.316,0-0.316,0.313-0.643,0.313
		c-2.907,2.877-6.132,6.063-8.722,8.935c-0.316,0-0.316,0.319-0.643,0.319c-1.615,1.902-3.549,3.819-5.165,5.729H34.54
		c-2.899,3.19-5.49,6.378-8.071,9.248H26.15c-1.939,2.552-4.197,4.789-6.139,7.339c-2.582,3.191-5.165,6.376-7.423,9.241
		c-2.583,3.506-5.165,6.696-6.78,9.248H5.489c-0.323,0.634-0.974,1.282-1.298,1.91v0.318c-0.643,0.962-1.608,1.925-1.934,2.56
		c-0.967,1.269-1.615,2.544-2.258,3.507c0,0,2.582,1.908,7.423,3.817h0.324c2.583,0.961,5.808,1.924,9.682,2.563
		c0.974,0.307,1.615,0.307,2.581,0.627h0.325c0.968,0,1.935,0.32,2.907,0.32h0.324c0.967,0.32,2.259,0.32,3.225,0.32
		c7.099,0.635,15.177,0,24.215-1.909h0.318c1.292-0.327,2.906-0.648,4.521-1.281c3.225-0.956,6.78-1.902,10.329-3.507
		c0.325,0,0.967-0.319,1.291-0.642c0.968-0.313,1.616-0.628,2.583-0.947c0.643-0.327,1.608-0.647,2.259-0.961
		c0.648-0.322,1.291-0.644,1.615-0.964c0.968-0.634,1.934-0.946,2.907-1.262c0.316-0.32,0.643-0.646,0.966-0.646
		c2.259-1.274,4.517-2.545,6.456-3.826c0.643-0.319,0.968-0.643,1.616-0.955c1.291-0.633,2.582-1.597,3.873-2.551
		c0,0-0.649,1.282-1.94,3.506h6.139c0.643-2.552,1.284-4.773,2.258-7.332c0-0.632,0.318-1.27,0.643-1.916
		c0.648-2.543,1.292-4.779,2.266-7.331c0.316-0.643,0.316-1.271,0.643-1.91c0.648-1.596,1.291-3.186,1.615-4.787
		c0.317,0,0.317-0.322,0.317-0.643c1.615-3.504,1.615-3.813,1.939-4.458c0.324-1.276,0.967-2.866,1.615-4.147
		c0.325-0.955,0.643-1.901,1.292-2.552c0-0.954,0.324-1.596,0.643-2.223c1.292-2.561,2.266-4.788,3.557-7.332
		c0.324-0.647,0.643-1.283,0.967-1.925c0.643-1.597,1.616-2.87,2.259-4.133c0.643-0.969,1.291-2.245,1.615-3.191
		c0.643-0.648,0.968-1.28,1.292-1.924c0.648-1.262,1.291-2.553,2.259-3.506c1.291-1.918,2.583-4.134,3.874-5.735
		c1.615-2.558,3.549-5.096,5.164-7.338c0.649-0.637,1.291-1.27,1.616-1.91c1.291-1.598,2.258-2.544,3.225-3.824l0.324-0.32
		l3.231-3.187c0.642-0.961,1.292-1.589,1.934-2.236c1.291-1.274,2.907-2.544,4.198-3.828c1.291-0.954,2.906-2.222,4.197-3.184
		c0.968-0.963,1.939-1.596,2.583-2.23c3.874-2.862,8.064-5.105,11.946-7.339c1.291-0.633,2.574-1.272,3.873-1.901
		c3.874-1.923,7.747-3.191,11.62-4.475c0.968-0.32,1.935-0.635,2.907-0.955h0.316c0.968-0.318,1.616-0.641,2.582-0.641h0.325
		c1.614-0.627,3.549-0.949,5.165-1.271c10.653-1.918,20.017-1.918,27.438-1.281c1.939,0.319,4.521,0.641,7.423,1.281
		c0.648,0.319,1.298,0.319,2.258,0.644c0.649,0.307,1.616,0.307,2.266,0.627h0.325c0.643,0.32,1.283,0.32,2.257,0.641
		c0.967,0.32,1.608,0.635,2.583,0.955c0.967,0.32,1.935,0.646,2.898,0.962c0.976,0.319,1.623,0.634,2.583,0.955
		c1.939,0.955,3.874,1.587,5.813,2.558c1.291,0.629,2.907,1.271,4.19,1.901c0.975,0.649,1.947,1.284,3.23,1.599
		c0.975,0.635,1.939,1.272,2.907,1.908h0.316c0.975,0.647,1.946,1.274,2.914,1.916c1.291,0.643,2.258,1.274,3.23,1.916
		c0.96,0.637,1.935,1.27,2.899,1.91c1.615,1.282,2.906,2.229,4.517,3.504l0.324,0.322c1.615,1.282,2.906,2.55,4.197,3.506
		c0.975,0.647,1.607,1.596,2.258,2.236c1.291,0.955,2.266,2.229,3.23,3.507h0.317c0.974,1.28,1.939,2.55,3.23,3.824
		c0.324,0.643,0.967,1.273,1.292,1.91c0.966,0.962,1.614,2.242,2.582,3.513c0.648,1.27,1.615,2.544,2.258,3.825
		c0.325,0.636,0.648,1.283,0.975,1.911c0.644,1.273,1.291,2.234,1.615,3.505c0.643,1.272,0.959,2.563,1.607,3.826
		c0,0.643,0.324,1.272,0.649,1.923c0.323,1.269,0.642,2.225,0.642,3.506h0.325v0.313v0.635c0,0,0,0.318,0.316,0.318
		c0,0.634,0.324,1.604,0.324,2.551c0,0.643,0,1.276,0.323,2.236v7.021v2.223c0,0.969-0.323,1.917-0.323,3.191v0.319
		c0,0.956-0.324,2.229-0.324,3.514c0,1.9-0.316,3.507-0.644,5.417v0.313c0.325,0,0.644,1.596,0.968,3.833
		c0.975,2.544,1.939,6.376,3.549,11.157c0.325,0.955,0.649,2.238,0.975,3.187c0,0.321,0,0.321,0.324,0.642
		c0.644,1.918,1.284,3.506,1.935,5.416c0.967,3.19,2.266,6.068,3.55,9.255c1.298,3.19,2.906,6.377,4.197,9.567h0.323
		c2.582,5.416,5.809,11.151,9.363,16.579c0.643,0.628,0.966,1.271,1.608,1.903c0.647,1.289,1.614,2.238,2.59,3.505l0.324,0.321
		c0.96,1.274,1.934,2.236,2.898,3.519c1.615,1.903,3.231,3.827,5.164,5.416c0,0,1.292,4.47-7.43-2.558
		c-0.636-0.634-1.934-1.589-3.227-2.858c-0.322-0.646-0.967-0.961-1.291-1.603h-0.315c-1.623-1.588-3.557-3.504-5.813-5.742
		c-0.643-0.635-1.292-1.275-2.266-1.903c-2.258-2.233-4.517-4.788-7.098-7.346c-0.969-0.632-1.616-1.268-2.259-1.908
		c-2.259-2.552-4.841-5.103-7.104-7.325c-0.968-0.646-1.607-1.603-2.259-2.242l-3.549-3.508c-1.291-1.273-2.582-2.55-3.558-3.817
		c-0.967-0.643-1.607-1.596-2.574-2.236c-0.975-0.948-1.63-1.917-2.582-2.872c-0.649-0.318-0.975-0.954-1.616-1.269
		c-0.324-0.634-0.647-0.962-0.967-1.282c-1.615-1.596-3.23-3.192-4.197-4.461c-0.324,0-0.648-0.319-0.648-0.633
		c-0.324,0-0.324,0-0.324-0.314c-3.55-3.189-5.482-5.43-5.482-5.43h-0.323c-0.648-0.32-2.582-0.947-5.172-1.916
		c-0.636-0.32-1.607-0.954-2.575-1.275c-0.968-0.642-1.935-0.945-2.906-1.59c-1.934-1.282-4.198-2.862-6.456-4.466
		c-0.649-0.642-1.291-1.27-2.259-1.91c-1.615-1.596-3.549-3.513-5.172-5.43c-0.316-0.626-0.96-1.274-1.607-1.909
		c-0.324-0.634-0.967-1.274-1.291-2.224c-0.648-0.97-1.608-2.243-2.258-3.191v-0.32c-0.649-0.961-1.3-2.234-1.94-3.513
		c-0.316-0.954-0.643-1.596-0.643-2.223c-0.649-1.283-1.291-2.879-1.615-4.478l-0.98-2.854c-0.628-1.924-0.952-3.521-1.603-5.43
		c0,0,0-0.313-0.324-0.313c-0.323-1.281-0.643-2.237-0.967-3.506c-0.324-0.648-0.643-1.28-0.643-1.923
		c-1.292-3.507-2.59-6.69-4.197-9.242c-0.325-0.642-0.649-1.281-0.975-1.908v-0.32c-0.317-0.642-0.644-1.28-1.292-1.597v-0.32
		c-0.643-0.946-1.607-2.229-2.582-3.19c-0.648-0.637-1.284-1.27-1.935-1.91c-0.647-0.643-1.291-1.274-1.939-1.596
		c0-0.32,0-0.32-0.316-0.32c-0.647-0.306-1.291-0.954-1.939-1.274c-0.324,0-0.324,0-0.324-0.32c-0.96-0.313-1.607-0.634-2.258-0.954
		h-0.324c-1.935-0.636-3.55-1.271-5.809-1.589h-0.323c-0.968-0.32-1.939-0.32-2.907-0.643h-0.643h-3.23h-0.644h-3.549
		c-0.967,0-1.616,0-2.583,0.32h-0.974c-0.324,0.319-0.967,0.319-1.291,0.319s-0.968,0.319-1.291,0.319
		c-0.317,0-0.645,0.321-0.968,0.321c-0.643,0-0.968,0.313-1.614,0.626h-0.644c-0.648,0.321-0.975,0.644-1.615,0.964h-0.324
		c-0.643,0.313-1.291,0.634-1.934,0.954h-0.325c-0.643,0.646-1.291,0.954-1.939,1.274c-1.607,0.953-3.226,2.236-4.517,3.506
		c-0.643,0.319-1.291,0.962-1.614,1.596h-0.325c-0.643,0.648-0.967,0.962-1.607,1.597v0.32c-0.648,0.634-0.968,0.955-1.616,1.597
		v0.32c-0.643,0.627-0.966,1.269-1.614,1.908c-0.325,0.636-0.967,1.283-1.291,1.911c-0.648,0.954-1.292,2.234-1.935,3.185
		c0,0.32,0,0.32-0.323,0.643c-0.649,1.596-1.616,3.506-2.259,5.429c-0.323,1.269-0.975,2.225-1.291,3.506v0.313
		c-0.324,1.589-0.975,3.506-1.298,5.43c0,1.27-0.316,2.544-0.316,3.826c-0.325,1.59-0.325,3.506-0.325,5.729
		c0,4.154,0.325,8.293,1.291,12.754c0.325,1.283,0.648,2.551,0.967,3.833c0.649,2.864,1.616,6.05,2.907,8.921v0.32
		c0.325,0.647,0.648,1.284,0.967,1.916c0.324,1.271,0.968,2.559,1.616,3.508v0.318c0.647,1.284,1.291,2.229,1.939,3.506
		c0.324,0.634,0.643,1.282,0.966,1.91c0.325,0.642,0.648,0.962,0.968,1.596c0.967,1.916,2.258,3.826,3.558,5.742
		c1.291,1.917,2.574,3.826,3.865,5.735h0.324c3.231,4.468,6.78,8.935,10.653,13.074c0.644,0.643,1.292,1.276,1.935,1.908
		c2.266,2.559,4.849,4.788,7.431,7.346c0.644,0.628,1.29,1.271,2.258,1.903c2.583,2.55,5.813,5.104,8.722,7.345
		c0.967,0.638,1.608,1.271,2.575,1.903c3.557,2.551,6.78,5.108,10.654,7.332c5.163,3.512,10.336,6.377,15.817,9.248
		c1.292,0.642,2.583,1.281,3.874,1.917v0.313c7.104,3.515,14.203,6.38,20.978,9.257c4.204,1.27,8.078,2.872,11.952,3.817
		c3.873,1.276,7.423,2.566,11.297,3.516c0.967,0,1.939,0.313,3.226,0.634c0,0,4.521,0.962,12.911,1.909h0.324
		c2.265,0.318,4.198,0.641,6.78,0.962h0.647c1.291,0.317,2.258,0.317,3.549,0.635c1.292,0,2.583,0.32,4.198,0.32h0.96
		c0.976,0.318,2.267,0.318,3.556,0.646h0.649c1.291,0,2.9,0.321,4.517,0.321h0.975c1.284,0.305,2.583,0.305,3.867,0.305
		c0.322,0.321,0.646,0.321,0.974,0.321c1.615,0,3.225,0,4.84,0.321h0.967c1.616,0,2.907,0.313,4.198,0.313h1.291
		c1.94,0.319,3.559,0.319,5.489,0.319h0.967c1.291,0.32,2.907,0.32,4.516,0.32h1.623c1.608,0,3.55,0.313,5.482,0.313h0.647h5.482
		c0.324,0,0.975,0,1.298,0.321h6.132c-0.323-0.321-0.647-0.321-0.975-0.635c10.013,0,20.018,0.313,30.996,0
		c7.099-0.32,14.521-0.642,21.951-1.275c4.516-0.626,8.721-1.275,13.229-2.231c0,0-10.33-45.6-73.592-57.391h-0.649
		c0.649-0.328,0.96-0.328,1.609-0.328h-9.356h-31.963c0,0,1.94-0.954,5.489-2.536c2.907-1.604,7.105-3.84,12.265-6.695
		c0.975-0.648,2.266-1.283,3.557-2.244c0.643-0.315,1.616-0.948,2.258-1.265l0.324-0.323c0.967-0.646,1.934-0.956,2.583-1.6h0.324
		c0.967-0.627,1.934-1.269,2.905-1.917h0.317c0.967-0.633,1.616-1.272,2.582-1.899c0.325,0,0.325,0,0.325-0.321
		c1.291-0.641,2.258-1.282,3.229-1.917c1.608-0.953,3.227-2.236,5.158-3.191c0-0.318,0.324-0.318,0.648-0.635
		c6.456-4.14,13.562-9.246,20.982-14.67c3.231-2.543,6.456-4.779,9.688-7.331c2.258-1.91,4.516-3.827,7.098-5.743
		c1.616-1.274,3.23-2.545,5.165-4.14c3.549-2.872,6.78-5.742,10.005-8.614c4.198-3.826,8.383-7.652,11.945-11.479
		c2.59-2.553,4.841-4.781,7.099-7.325c0.649-0.648,1.298-1.28,1.947-1.923v-0.313c2.898-3.189,5.48-6.063,8.064-8.929
		c0-0.319,0-0.319,0.323-0.319c3.55-4.461,7.1-8.929,10.005-12.753c0.968-1.276,1.616-2.552,2.582-3.507
		C462.917,191.636,463.558,190.688,463.884,190.04 M318.617,134.243c0.644-2.229,1.291-4.788,1.935-7.338
		c0.324-0.634,0.324-1.27,0.647-1.91c0.317-0.955,0.968-2.223,1.291-3.513c0.325,0,0.325-0.313,0.325-0.313
		c0.643-1.272,0.959-2.224,1.608-3.506c0.323-0.641,0.647-1.281,0.974-1.908c0.645-1.281,1.608-2.559,2.258-3.507
		c0,0,0-0.328,0.317-0.328c0.647-1.272,1.623-2.222,2.583-3.505c0.324-0.642,0.974-1.272,1.615-1.909
		c0.323-0.636,0.974-1.279,1.291-1.597c0.647-0.641,1.291-1.282,1.938-1.594v2.229c0,0.326,0,0.648,0.325,0.962
		c0,1.59,0.324,3.497,0.324,6.063c0.315,0.947,0.315,1.581,0.315,2.222c0,0.964,0.325,1.91,0.325,2.872
		c0.317,1.91,0.317,4.142,0.643,6.377c0,0.955,0.323,1.917,0.323,2.865c0,0.954,0.325,1.923,0.325,2.872
		c0,1.594,0.324,3.19,0.324,4.466c0,2.23,0.316,4.146,0.316,6.059v3.19v2.229v3.186c0,0.32,0,0.962-0.316,1.275v2.872
		c0,0.641,0,1.273-0.324,1.923c0,1.27,0,2.537-0.325,3.506v0.947c-0.323,0.956-0.323,1.924-0.323,2.871
		c-0.323,0.635-0.323,1.273-0.323,1.918c-0.317,1.269-0.645,2.544-0.96,3.824c-0.324,1.27-0.324,2.542-0.649,3.513
		c-0.324,0.629-0.324,1.271-0.646,1.901c-0.645,2.871-1.609,5.104-2.26,7.339c-0.323,0.637-0.643,1.591-0.967,2.23
		c0,0.313,0,0.635-0.325,0.962c-0.322,0.319-0.322,0.634-0.646,1.269c0,0.321-0.332,0.644-0.332,1.275
		c-0.313,0-0.313,0.32-0.313,0.642c-0.315,0.32-0.642,0.954-0.642,1.27c-0.325,0-0.325,0.32-0.325,0.32
		c-0.324,0.643-0.324,0.956-0.646,1.274c-0.325,0.326-0.325,0.647-0.325,0.969c-0.317,0.309-0.644,0.629-0.967,1.27
		c-0.317,0.313-0.644,0.955-0.968,1.596v0.321c-0.323,0.313-0.643,0.947-1.292,1.59v0.313c-0.322,0.32-0.974,0.969-1.291,1.291
		v0.306c-0.642,0.642-1.291,1.275-1.613,1.916c-0.645,0.643-1.292,1.274-1.936,1.91c-1.938,1.924-4.198,3.513-6.78,5.43h-0.323
		c-0.968,0.627-1.615,1.271-2.575,1.908c-1.299,0.636-2.266,1.283-3.556,1.911c-0.645,0.318-1.292,0.641-2.268,0.954
		c-0.642,0.319-1.284,0.642-2.258,1.28c0,0,6.456-6.376,10.654-16.906c0,0,0.324,0,0.324-0.313c0.323-1.275,0.968-2.229,1.291-3.507
		c0.643-1.91,0.968-3.833,1.29-5.742c0.324-1.275,0.324-2.544,0.649-3.506v-0.32v-5.095v-2.87v-1.284v-1.901
		c-0.325-1.288-0.325-2.243-0.325-3.513v-3.824v-1.918v-7.324c0-0.647,0.325-1.282,0.325-1.923v-3.509v-0.641
		c0.324-0.954,0.324-2.229,0.324-3.186c0.311-0.636,0.311-1.272,0.311-1.916c0.324-2.552,0.649-5.097,1.298-7.331
		C318.294,135.526,318.617,134.877,318.617,134.243 M237.59,93.439L237.59,93.439v-3.516v-2.235v-3.191v-0.318
		c0.324-1.263,0.324-2.548,0.643-3.509v-1.905c0,0,0.648,0.632,1.616,1.905c0,0.321,0.323,0.643,0.647,1.283h0.323
		c1.935,2.544,4.842,6.691,8.716,11.486h0.323c1.284,1.581,2.899,3.811,4.833,5.727c0.975,1.276,2.266,2.231,3.23,3.516
		c1.939,1.907,3.55,3.824,5.489,5.733c2.583,2.551,4.841,4.781,7.747,7.34c0.324,0.319,0.967,0.946,1.615,1.27
		c0,0.32,0.325,0.641,0.648,0.641c0.959,1.282,2.259,2.231,3.55,3.506c1.291,1.282,2.582,2.552,3.858,3.826
		c0.655,0.643,1.307,1.276,1.946,1.91c1.291,1.275,2.259,2.243,3.231,3.511c0.324,0,0.324,0.321,0.324,0.321
		c0.967,1.276,2.258,2.229,3.226,3.506c0.647,0.634,0.975,1.283,1.614,2.23c1.939,2.234,3.874,4.779,5.489,7.019
		c0.324,0.956,0.968,1.595,1.283,2.229c1.623,2.229,3.231,4.779,4.523,7.333c0.324,0.641,0.646,1.273,0.974,1.923
		c0.635,1.27,1.284,2.226,1.608,3.506v0.307c0.647,0.961,0.974,2.244,1.615,3.514c0,0.635,0.323,1.273,0.643,1.918
		c0.324,1.269,0.648,2.544,0.974,3.511v0.313c0.317,0.955,0.644,2.225,0.644,3.513c0.324,0.629,0.324,1.271,0.324,1.901
		c0.323,2.554,0.648,5.104,0.323,7.339v1.91c-0.323,2.552-0.974,5.108-1.614,7.332c-0.324,0.647-0.648,1.598-0.968,2.236
		c0,0.635-0.322,0.955-0.647,1.596c-0.317,0.635-0.644,1.271-0.967,1.911c0,0.313-0.324,0.954-0.324,1.28
		c-0.649,0.628-0.976,1.59-1.608,2.224v0.32c-0.325,0.643-0.974,1.273-1.299,1.91c-0.642,0.962-1.615,1.596-2.258,2.558
		c-0.317,0.313-0.644,0.955-0.967,1.271c-0.324,0.317-0.648,0.641-0.976,0.955c-0.643,0.967-1.607,1.595-2.258,2.556v-0.961v-0.628
		c0-0.319,0.325-0.642,0.325-0.642v-0.33v-0.636v-0.317v-0.956v-0.313v-0.962c0.323,0,0.323,0,0.323-0.32v-1.273
		c0-2.551,0-5.734-0.648-9.241c0-1.91-0.316-3.833-0.643-5.742c-0.324-1.274-0.648-2.544-0.974-3.506v-0.32
		c-1.284-4.468-3.542-9.249-6.456-14.027c0,0,0-0.314-0.317-0.314c-0.643-0.961-1.291-1.916-1.939-2.557
		c-1.292-1.918-2.583-3.507-4.197-5.104l-0.332-0.317c-0.312-0.638-0.952-0.956-1.603-1.599v-0.307
		c-0.648-0.32-1.291-0.969-1.935-1.604c-1.614-1.899-3.549-3.504-5.488-5.414c-0.648-0.64-1.291-1.28-1.939-1.917
		c0,0-0.317,0-0.317-0.318c-1.298-0.947-2.582-2.23-3.881-3.506c-0.643-0.636-1.291-1.272-1.934-2.229
		c-2.59-2.237-4.841-4.461-7.1-7.019c-0.323-0.636-0.974-1.599-1.621-2.23c-0.96-0.962-1.935-2.229-2.899-3.506
		c-0.975-1.282-1.935-2.557-2.582-3.832c-0.649-0.634-0.976-1.27-1.3-1.91c-1.607-2.223-2.899-4.782-4.19-7.332
		c-0.316-0.641-0.643-1.28-0.967-1.908c-0.647-1.281-0.974-2.236-1.615-3.507c-0.316-1.281-0.967-2.55-1.291-3.833
		c0-0.642-0.323-1.272-0.644-1.908c-0.647-2.56-0.975-4.787-1.298-7.341c-0.316-0.64-0.316-1.272-0.316-1.916
		C237.914,95.982,237.59,94.708,237.59,93.439 M288.92,199.287c-0.647-0.634-1.614-1.899-2.258-2.87l-0.324-0.32
		c-0.323-0.634-0.975-1.275-1.299-1.901h-0.316c-0.324-0.642-0.968-1.282-1.615-1.917c-0.324-0.641-0.967-1.271-1.615-2.236
		c-0.656-0.318-0.968-0.956-1.607-1.597c-2.907-3.188-6.133-6.378-10.014-9.563c-0.968-0.319-1.615-0.946-2.266-1.59
		c-0.312,0-0.312-0.326-0.635-0.326c-0.649-0.636-0.975-0.953-1.616-1.273c-0.324-0.314-0.324-0.314-0.647-0.635
		c-1.935-0.947-3.558-2.229-5.489-3.5c-0.967-0.642-1.934-0.971-2.899-1.603h-0.323c-0.975-0.643-1.935-1.274-2.907-1.591
		c-1.291-0.635-2.583-1.281-4.197-1.916l-0.325-0.32c-1.607-0.641-2.898-1.268-4.516-1.907c-1.939-0.645-3.55-1.283-5.164-1.918
		c-4.517-1.598-9.039-3.191-13.887-5.101c-0.317,0-0.637-0.324-1.284-0.324c-1.615-0.632-3.23-1.271-5.172-1.899
		c-1.608-0.647-3.55-1.282-5.481-1.923c-2.907-1.271-5.809-2.229-8.714-3.509c-0.325,0-0.325,0-0.649-0.318
		c-0.967-0.32-2.258-0.947-3.549-1.597h-0.648c-1.283-0.636-2.899-1.273-4.197-1.909c-1.291-0.636-2.575-1.272-4.191-2.229
		c-0.967-0.321-1.938-0.962-2.905-1.59h-0.324c-0.968-0.647-1.936-0.97-2.899-1.604c0,0-0.325,0-0.325-0.319
		c-0.974-0.32-1.614-0.947-2.582-1.589h-0.323c-0.968-0.643-1.935-1.275-2.906-1.916c-0.968-0.636-1.935-1.599-2.907-2.23
		c-2.898-2.229-5.489-4.466-7.74-7.338c-0.647-0.634-0.974-1.27-1.614-1.91c-0.324-0.321-0.648-0.955-0.976-1.274
		c-0.316-0.643-0.966-1.27-1.291-1.916c0,0,12.596,0.327,29.698,3.19c3.23,0.643,6.456,1.276,10.012,1.91
		c5.809,1.603,11.945,3.192,18.077,5.108c0,0,0.324,0,0.324,0.318c2.258,0.634,4.197,1.27,6.132,1.909
		c1.939,0.634,3.549,1.283,5.165,2.23c1.291,0.317,2.582,0.954,3.874,1.596c1.291,0.641,2.582,0.962,3.873,1.589
		c2.265,1.274,4.84,2.565,7.423,4.146c1.939,0.962,3.874,1.915,5.489,3.189c1.615,0.956,2.906,1.91,4.197,2.872
		c0.323,0,0.323,0.313,0.643,0.313c1.299,0.952,2.583,1.917,3.557,2.87c0.968,0.643,1.936,1.275,2.582,1.925
		c3.227,2.536,5.808,4.771,8.072,7.322l1.934,1.918c2.259,2.545,4.197,5.096,5.809,7.338c0.646,0.63,0.974,1.271,1.298,1.902
		c0.967,1.284,1.607,2.552,2.258,3.833c0.644,1.271,1.292,2.545,1.94,3.506c0.315,0.637,0.643,1.27,0.96,2.23
		c0.974,2.552,1.938,4.788,2.265,7.012c0.324,0.968,0.324,1.596,0.648,2.236c0.316,1.917,0.643,3.816,0.643,5.415l0.316,0.318v1.275
		v2.229v0.963v0.962c-0.316-0.328-0.316-0.648-0.643-0.962c-0.643-0.963-1.291-1.908-1.934-2.872v-0.316h-0.011V199.287z"/>
	<path  d="M328.3,385.506c-0.967-1.917-2.258-3.507-3.549-5.423c0,0,0-0.319-0.324-0.319
		c-3.227-0.319-6.781-0.954-10.33-1.59h-39.71c2.265,1.59,5.82,3.825,9.688,7.332H328.3z"/>
	<path  d="M159.146,406.23c-0.643,2.222-0.967,4.787-1.616,7.33h32.923c0.975-2.543,1.299-4.78,1.939-7.33H159.146z"
		/>
	<path  d="M334.114,396.981h-38.419c1.941,2.229,3.874,4.473,5.814,7.01h35.505
		C336.365,401.767,335.405,399.21,334.114,396.981"/>
	<path  d="M160.758,387.418c0,2.553,0,4.781-0.317,7.332h27.107c-1.934-2.235-3.865-4.779-5.807-7.332H160.758z"/>
	<path  d="M150.106,432.057h32.604c1.291-2.229,2.582-4.788,3.557-7.331h-32.611
		C152.688,427.269,151.397,429.51,150.106,432.057"/>
	<path  d="M148.817,434.604l3.231,6.698h24.208c1.935-2.225,3.55-4.469,5.164-7.333h-32.287
		C148.817,434.291,148.817,434.291,148.817,434.604"/>
	<path  d="M159.47,403.997h33.246c0.324-0.318,0.324-0.954,0.324-1.596c0,0,0.324,0,0.324-0.635
		c-1.291-1.597-2.906-3.192-4.197-4.78h-28.73C160.112,399.209,159.787,401.767,159.47,403.997"/>
	<path  d="M154.302,422.81h32.929c0.967-2.231,1.935-4.788,2.582-7.332h-32.93
		C156.243,417.706,155.276,420.258,154.302,422.81"/>
	<path  d="M80.379,283.149h11.304c0.643-2.229,0.966-4.787,1.933-7.331h-7.422
		C84.901,278.05,82.961,280.6,80.379,283.149"/>
	<path  d="M329.595,387.418h-43.26c2.259,2.226,4.848,4.781,7.422,7.332h39.712
		C332.171,392.513,330.886,389.969,329.595,387.418"/>
	<path  d="M160.114,457.566c0,0,2.259-1.596,6.132-4.787h-8.714L160.114,457.566z"/>
	<path  d="M160.438,378.168c0.316,2.23,0.316,4.789,0.316,7.34h19.375c-1.615-2.235-3.231-4.786-4.849-7.34H160.438z"
		/>
	<path  d="M159.47,368.919c0.316,1.91,0.642,4.478,0.967,7.332H174c-1.616-2.543-3.231-4.778-4.522-7.332H159.47z"/>
	<path  d="M156.562,450.552h11.621c1.939-1.909,4.197-4.468,6.78-7.331h-21.95L156.562,450.552z"/>
	<path  d="M127.508,83.545v-0.318c0-0.961-0.316-1.909-0.316-2.552c-0.648-5.417-3.23-10.201-7.104-13.708
		c-0.648-0.963-1.615-1.597-2.266-2.229c-1.933-1.276-3.865-2.244-5.807-2.872c-2.583-0.641-4.841-1.274-7.424-1.274
		s-5.164,0.636-7.423,1.274c-2.266,0.628-4.205,1.596-5.813,2.872c-0.966,0.634-1.616,1.268-2.583,2.229l-2.266,2.225
		c-1.934,2.558-3.542,5.75-4.517,9.254c-0.324,1.598-0.324,3.192-0.324,4.781C98.777,82.591,113.955,82.912,127.508,83.545"/>
	<path  d="M263.095,213.955L263.095,213.955c0.316,1.281,0.316,2.551,0.642,4.154c0,0.32,0,0.32,0.324,0.634
		c0.325,1.909,0.648,3.498,1.292,5.094c0.643,1.288,0.966,2.554,1.614,3.515c0.325,0.642,0.644,1.27,0.968,1.91
		c4.19,7.972,10.33,13.072,13.236,15.31h0.312c0,0.315,0.331,0.637,0.655,0.637h0.324c0,0.313,0.316,0.313,0.316,0.632h0.324
		l0.325,0.322v-0.322v-0.317c0-0.313,0-0.313,0.323-0.634v-0.315v-0.313v-0.319v-0.327c0-0.636,0-1.275,0.324-2.223v-1.284v-1.273
		c0-0.636,0-1.598,0.324-2.229c0-2.231,0-4.783-0.324-7.339c-0.324-3.827-0.975-7.647-2.266-11.15c0-0.65-0.331-1.283-0.643-1.926
		v-0.318c-0.324-0.629-0.648-0.949-0.967-1.591c-0.648-0.634-0.975-1.275-1.3-1.916c-0.642-0.628-0.967-0.947-1.607-1.597
		c-0.648-0.633-1.291-1.274-1.939-1.903c-0.324-0.319-0.648-0.633-0.967-0.633c-3.873-2.872-8.072-3.521-10.006-0.327
		c-0.648,0.96-0.974,1.909-0.974,2.863c0,0.319,0,0.969-0.316,1.29v0.307v1.594h0.004V213.955z"/>
	<path  d="M230.49,437.475c-1.299-1.273-2.582-2.223-3.873-3.505c-0.648-0.643-1.616-1.281-2.259-1.909
		c-2.583-2.236-5.488-4.787-8.079-7.34c-0.96-0.643-1.607-1.273-2.258-1.908c-2.575-2.561-5.158-4.788-7.747-7.332l-0.324-0.326
		c-5.48,1.916-10.006,6.063-12.264,11.156c-0.324,0-0.324,0.321-0.324,0.321c-0.323,0.642-0.323,0.962-0.643,1.595v0.328
		c-0.324,0.321-0.324,0.947-0.648,1.589c0,0.635-0.316,1.271-0.316,1.917c-0.324,1.269-0.324,2.545-0.324,4.141v2.558v0.313
		c0,0.633,0.324,1.597,0.643,2.238c0.324,2.222,0.968,4.145,2.259,6.048c0.323,0.647,0.647,0.962,0.975,1.596
		c0.642,0.636,0.967,1.275,1.291,1.591c0.643,0.968,1.291,1.596,1.934,2.235c0.968,0.955,2.266,1.604,3.231,2.56h0.323
		c0.332,0.307,0.968,0.627,1.608,0.945h0.324c0.324,0.322,0.975,0.645,1.615,0.645c0,0.313,0.316,0.313,0.316,0.313
		c0.648,0.328,0.976,0.328,1.615,0.646h0.648c0.647,0.323,0.968,0.323,1.608,0.323c0.324,0.317,0.648,0.317,0.974,0.317h0.968
		c0.967,0.31,1.615,0.31,2.258,0.31c0.975,0,1.623,0,2.258-0.31h0.649c0.323,0,0.974,0,1.291-0.317h0.967
		c0.324,0,0.648-0.323,1.291-0.323c0,0,0.324,0,0.648-0.318c0.324,0,0.647-0.328,1.291-0.328c0,0,0.316-0.313,0.644-0.313
		c0.324,0,0.647-0.32,1.298-0.645h0.317c0.648-0.318,0.967-0.641,1.614-0.945l0.325-0.32c0.967-0.634,2.258-1.598,3.225-2.237
		c0.649-0.642,1.291-1.27,1.94-2.235c1.607-1.902,3.23-4.459,3.865-7.332c0.324-0.32,0.324-0.946,0.648-1.271
		C234.363,440.348,232.423,438.759,230.49,437.475"/>
	<path  d="M291.18,428.549v-0.321c0-0.956-0.324-2.224-0.324-3.506c-0.324-1.909-0.648-3.505-0.975-5.424v-0.318
		c0-0.954-0.316-2.227-0.644-3.507c0-0.635-0.316-1.274-0.316-1.9c-0.323-1.284-0.647-2.563-1.298-3.827
		c-0.324-1.923-0.968-3.519-1.607-5.743c-0.975-2.235-1.939-4.475-2.923-7.01c-0.951-1.924-1.926-3.842-2.893-5.75
		c-0.643-1.277-1.291-2.552-1.935-3.82c-0.975-1.604-2.259-3.506-3.23-5.429c-1.291-1.91-2.582-3.826-3.873-5.736h31.954
		c-9.688-1.908-19.367-4.468-29.056-7.339h-8.39l-1.939-1.906h3.873c-2.898-0.955-5.808-2.225-8.706-3.191
		c-0.648-0.315-1.299-0.636-1.947-0.636c-2.575-0.955-5.157-2.226-7.74-3.186c-2.266-0.963-4.848-2.229-7.431-3.514
		c-1.607-0.634-3.224-1.271-4.84-2.229c-0.644-0.318-1.291-0.637-1.935-0.953c-1.933-0.964-3.881-1.91-5.488-2.872
		c-1.615-0.643-2.899-1.599-4.198-2.225c-1.615-0.969-3.225-1.923-4.848-2.872c-0.636-0.317-1.283-0.646-1.608-0.968
		c-1.622-0.956-3.225-1.911-4.854-2.855c-1.276-0.963-2.567-1.604-3.858-2.554c-0.643-0.641-1.615-0.968-2.266-1.602
		c-1.283-0.955-2.899-1.903-4.19-2.872c-0.642-0.635-1.291-1.275-2.258-1.596c-1.291-1.275-2.582-2.231-4.198-3.509
		c-0.974-0.626-2.258-1.595-3.23-2.55c-0.967-0.643-1.934-1.59-2.906-2.229c-0.643-0.638-1.607-1.6-2.258-2.228
		c-1.608-1.281-2.907-2.563-4.198-3.833c-1.291-1.272-2.575-2.229-3.866-3.513c-1.298-1.273-2.59-2.544-3.881-3.818
		c-0.643-0.962-1.283-1.589-1.935-2.229c-1.614-1.604-2.905-3.188-4.521-4.788c0,0,0-0.321-0.316-0.321
		c-0.648-0.947-1.615-1.916-2.266-2.869c-1.615-1.911-3.225-3.825-4.841-6.058c-0.966-1.275-1.934-2.55-2.907-3.506
		c-1.292-1.909-2.583-3.506-3.874-5.093c-0.967-1.604-2.258-3.194-3.225-5.109c0,0,0,0.634-0.325,1.915v1.91v1.603
		c0,0,0,0.314-0.324,0.314v1.591v0.318c0,0.963-0.317,2.229-0.317,3.507c0,0.646-0.323,1.272-0.323,2.229s-0.325,2.23-0.325,3.515
		c-0.325,0.952-0.325,2.229-0.643,3.506c0,0.633,0,1.603-0.324,2.229c0,0.963-0.325,2.238-0.325,3.188v0.318
		c-0.323,1.274-0.643,2.553-0.643,3.515c-0.324,0.955-0.324,1.595-0.648,2.229c-0.323,2.56-0.648,4.781-1.291,7.331
		c-0.324,0.644-0.324,1.277-0.648,1.924c-0.316,2.544-0.966,4.774-1.607,7.326c-0.325,0.643-0.648,1.274-0.648,1.909
		c-0.967,2.557-1.607,5.108-2.582,7.345c-0.325,0.627-0.325,1.271-0.644,1.903c-0.648,1.283-0.975,2.55-1.616,3.825v0.329
		c-0.642,0.944-0.966,2.223-1.615,3.189c-0.316,0.626-0.643,1.582-0.967,2.225c-1.615,2.552-2.906,5.103-4.516,7.34
		c-0.649,0.317-0.975,0.945-1.292,1.268l-1.299-1.268c-0.966-1.604-2.899-3.833-4.84-7.34c-0.316-0.643-0.643-1.274-1.291-2.225
		c0-0.328-0.323-0.969-0.648-1.283v-0.32c-0.317-0.318-0.643-0.961-0.968-1.587c-0.324-0.648-0.642-1.283-0.642-1.917
		c-0.325-0.645-0.648-1.271-0.968-1.918c-0.323-0.953-0.648-1.598-0.967-2.225c-0.324-0.968-0.648-1.923-0.975-3.19l-0.324-0.313
		c-0.317-1.283-0.642-2.563-1.292-3.84c0-0.635-0.323-1.27-0.642-1.909c-0.324-0.948-0.324-2.229-0.648-3.19l-0.325-0.322
		c-0.316-1.27-0.643-2.542-0.968-3.813c0-0.646-0.316-1.28-0.316-1.924c-0.648-2.229-1.291-4.771-1.615-7.331
		c0-0.635-0.325-1.272-0.325-1.909c-0.323-0.962-0.323-1.906-0.643-2.879v-0.954c-0.324-0.945-0.324-2.229-0.648-3.507
		c0-0.626-0.324-1.596-0.324-2.229c-0.325-2.225-0.643-4.468-0.967-7.021c0-2.229-0.324-4.453-0.648-6.689
		c0,0-0.643,2.236-1.608,6.689c-0.324,1.924-0.967,4.468-1.616,7.021v0.313c0,0.649,0,1.29-0.323,1.916
		c-0.325,0.963-0.325,2.238-0.643,3.507c0,1.274-0.325,2.244-0.648,3.833c0,0.637,0,1.274-0.325,1.909
		c0,0.955-0.316,2.231-0.316,3.505c-0.648,3.826-1.291,8.294-1.616,13.076c-0.323,0.643-0.323,1.595-0.323,2.236
		c0,1.269-0.318,2.229-0.318,3.513c0,1.271-0.323,2.224-0.323,3.505c0,0.627,0,1.271-0.324,1.903v0.319v2.552
		c0,0.635,0,1.283-0.325,2.229v2.245c-0.317,3.187-0.317,6.05-0.317,9.233v0.329c-0.324,0.641-0.324,1.268-0.324,1.906v7.333
		c0,2.87-0.324,6.058-0.324,9.247c0.324,0,0,0,0,0h0.324v9.25c0,6.689,0.324,13.389,0.643,20.722
		c0.325,2.869,0.648,6.062,0.648,9.246c0.323,2.873,0.643,6.063,0.967,9.249c0.324,3.189,0.642,6.056,0.967,9.249
		c0,0,5.488-1.271,13.236-5.743h0.324c0.643-0.314,0.967-0.635,1.615-0.956h0.318c0.323-0.32,0.974-0.945,1.615-1.268h0.325
		c0.323-0.327,0.966-0.965,1.607-1.282c0.974-0.644,1.939-1.271,2.589-1.909c0.643-0.642,1.292-0.963,1.935-1.596
		c0.324,0,0.324,0,0.324-0.321c0.644-0.319,1.291-0.947,1.935-1.598l3.881-3.825l1.933-1.9c2.583-2.88,4.841-6.072,7.099-9.57
		c0.975-0.96,1.616-2.235,2.266-3.505c1.935-2.872,3.549-5.751,5.165-9.255v-0.315c0.642-0.962,0.966-2.234,1.616-3.505
		c0.315-0.646,0.642-1.281,0.642-1.915c0.648-0.956,0.967-2.236,1.291-3.19c0.325-0.321,0.325-0.645,0.325-0.955
		c0.642-1.597,1.292-3.499,1.608-5.104c0.975-2.872,1.939-6.063,2.589-9.247c0.316-1.598,0.643-2.869,0.968-4.468
		c0,0,0.323,1.599,0.967,4.468h9.038c-1.291-2.545-2.582-4.78-3.549-7.333h-5.165c0-0.641,0.316-1.268,0.642-1.906h3.557
		c-0.648-1.283-1.291-2.872-1.939-4.149l0.325-3.188v-2.225l0.646-7.346v-1.903l0.317-3.19l0.648-12.118
		c0,0.634,1.283,4.788,4.19,11.482c0.324,0.636,0.647,1.271,0.975,1.592v0.313c0.643,1.282,1.291,2.55,1.934,3.826v0.319
		c0.643,0.964,1.292,2.229,1.934,3.187v0.319c0.976,1.598,1.94,3.521,3.231,5.743c0.648,0.962,1.291,2.229,1.934,3.507
		c0.649,1.279,1.616,2.55,2.267,3.833c1.29,1.586,2.258,3.505,3.549,5.095c0,0.319,0.324,0.319,0.324,0.64
		c0.643,1.284,1.615,2.231,2.259,3.507c0.648,0.642,0.974,1.281,1.614,1.908c0.648,1.276,1.615,2.245,2.583,3.515
		c0.968,1.273,1.614,2.545,2.582,3.824c0.648,0.637,0.968,1.283,1.615,1.91c1.935,2.561,3.873,4.788,5.809,7.34
		c0.647,0.634,1.291,1.27,1.615,1.915c1.934,2.543,4.197,5.097,6.455,7.324c0.648,0.645,0.976,1.276,1.615,2.246
		c1.291,0.946,2.258,2.222,3.231,3.505c0,0,0.324,0,0.324,0.32c0.959,0.947,2.259,2.225,3.225,3.185
		c0.643,0.948,1.284,1.588,1.934,2.227c1.3,1.271,2.259,2.234,3.559,3.519c1.282,1.269,2.25,2.543,3.549,3.827
		c0.647,0.626,1.284,1.268,2.258,1.9c0.967,1.28,2.251,2.229,3.549,3.507l0.324,0.318c0.976,0.971,2.258,2.237,3.55,3.515
		c3.231,2.864,6.78,6.055,10.337,9.24c0.959,0.646,1.608,1.282,2.25,1.918c4.85,4.459,10.014,8.611,15.495,13.074h0.324
		c2.265,1.915,4.521,3.824,7.104,5.74c1.614,1.27,3.226,2.227,4.521,3.498c2.582,1.918,5.158,3.826,7.74,5.75
		c0.323,0.32,0.974,0.637,1.298,0.947c0-0.313,0.317-0.627,0.643-0.947c0.649-1.279,1.291-3.19,1.936-5.43
		c0.323-0.627,0.646-1.268,0.646-1.916c0.649-1.268,0.976-2.537,1.291-4.14c0.325-0.948,0.645-2.237,0.645-3.192v-0.313
		c0.647-1.916,0.647-3.834,0.974-5.744c0-0.954,0.324-2.224,0.324-3.506v-3.824L291.18,428.549L291.18,428.549z"/>
</g>
</svg>
