<?xml version="1.0" encoding="utf-8"?>
<!-- Generator: Adobe Illustrator 15.0.2, SVG Export Plug-In . SVG Version: 6.00 Build 0)  -->
<!DOCTYPE svg PUBLIC "-//W3C//DTD SVG 1.1//EN" "http://www.w3.org/Graphics/SVG/1.1/DTD/svg11.dtd">
<svg version="1.1" id="Layer_1" xmlns="http://www.w3.org/2000/svg" xmlns:xlink="http://www.w3.org/1999/xlink" x="0px" y="0px"
	 width="16.004px" height="11.993px" viewBox="0 0 16.004 11.993" enable-background="new 0 0 16.004 11.993" xml:space="preserve">
<path d="M15.844,2.586c0,0-0.156-1.175-0.637-1.692c-0.608-0.679-1.291-0.682-1.604-0.724C11.364,0,8.006,0,8.006,0
	H7.998c0,0-3.359,0-5.599,0.17C2.087,0.212,1.404,0.215,0.796,0.894C0.316,1.411,0.16,2.586,0.16,2.586S0,3.966,0,5.347v1.294
	C0,8.021,0.16,9.4,0.16,9.4s0.156,1.176,0.636,1.693c0.608,0.68,1.409,0.658,1.765,0.729c1.28,0.131,5.441,0.172,5.441,0.172
	s3.362-0.006,5.602-0.178c0.313-0.041,0.995-0.043,1.604-0.723c0.48-0.518,0.637-1.693,0.637-1.693s0.16-1.379,0.16-2.759V5.347
	C16.004,3.966,15.844,2.586,15.844,2.586z M5.996,9.007V3.014l5.014,2.998L5.996,9.007z"/>
</svg>
