<?xml version="1.0" encoding="utf-8"?>
<!-- Generator: Adobe Illustrator 15.0.2, SVG Export Plug-In . SVG Version: 6.00 Build 0)  -->
<!DOCTYPE svg PUBLIC "-//W3C//DTD SVG 1.1//EN" "http://www.w3.org/Graphics/SVG/1.1/DTD/svg11.dtd">
<svg version="1.1" id="Layer_1" xmlns="http://www.w3.org/2000/svg" xmlns:xlink="http://www.w3.org/1999/xlink" x="0px" y="0px"
	 width="747.984px" height="748.013px" viewBox="0 0 747.984 748.013" enable-background="new 0 0 747.984 748.013"
	 xml:space="preserve">
<path fill-rule="evenodd" clip-rule="evenodd" fill="#7C3D44" d="M305.464,177.698C234.612,113.272,145.868,73.776,145.868,73.776
	s-9.654,20.648-0.197,59.786c6.192,25.633,23.116,53.072,36.262,66.227c28.947,28.967,45.192,40.644,125.244,80.15
	c80.05,39.52,66.312,94.969,66.312,94.969s18.133-18.955,18.975-50.392C393.142,299.212,390.558,255.085,305.464,177.698z"/>
<path fill-rule="evenodd" clip-rule="evenodd" fill="#7C3D44" d="M602.412,614.246c-6.152-25.648-23.037-53.104-36.164-66.255
	c-28.908-28.962-45.138-40.626-125.144-80.068c-80.007-39.447-66.177-94.995-66.177-94.995s-18.166,19.014-19.059,50.493
	c-0.719,25.339,1.797,69.528,86.786,146.875c70.767,64.412,159.466,103.822,159.466,103.822S611.81,653.433,602.412,614.246z"/>
<path fill-rule="evenodd" clip-rule="evenodd" fill="#7C3D44" d="M73.803,602.069c0,0,39.452-88.726,103.882-159.536
	c77.38-85.036,121.549-87.581,146.88-86.877c31.47,0.872,50.461,19.027,50.461,19.027s-55.516-13.799-94.999,66.236
	c-39.483,80.025-51.153,96.267-80.122,125.193c-13.154,13.138-40.609,30.035-66.254,36.205
	C94.478,611.745,73.803,602.069,73.803,602.069z"/>
<path fill-rule="evenodd" clip-rule="evenodd" fill="#7C3D44" d="M674.326,146.274c0,0-39.366,88.684-103.775,159.399
	c-77.354,84.938-121.579,87.415-146.947,86.669c-31.515-0.915-50.56-19.102-50.56-19.102s55.613,13.879,95.026-66.106
	c39.411-79.987,51.073-96.199,80.036-125.092c13.152-13.118,40.618-29.979,66.289-36.111
	C653.607,136.564,674.326,146.274,674.326,146.274z"/>
<path fill-rule="evenodd" clip-rule="evenodd" fill="#7C3D44" d="M326.573,0c0,0,57.107,78.566,86.25,169.791
	c35,109.555,15.173,149.061,1.932,170.635c-16.449,26.809-41.632,34.153-41.632,34.153s39.624-41.145-9.942-115.393
	c-49.568-74.248-57.799-92.475-68.384-132.03c-4.807-17.965-5.742-50.193,1.709-75.483C307.888,13.049,326.573,0,326.573,0z"/>
<path fill-rule="evenodd" clip-rule="evenodd" fill="#7C3D44" d="M421.513,748.013c0,0-57.112-78.479-86.191-169.637
	c-34.924-109.481-15.009-149.004-1.715-170.592c16.515-26.813,41.753-34.198,41.753-34.198s-39.751,41.189,9.812,115.354
	c49.564,74.16,57.787,92.374,68.34,131.912c4.793,17.951,5.688,50.167-1.81,75.455C440.249,734.939,421.513,748.013,421.513,748.013
	z"/>
<path fill-rule="evenodd" clip-rule="evenodd" fill="#7C3D44" d="M340.382,333.45c-21.586-13.276-61.11-33.151-170.646,1.804
	C78.531,364.365,0,421.476,0,421.476s13.066,18.72,51.704,30.14c25.294,7.48,57.522,6.571,75.483,1.769
	c39.552-10.563,57.778-18.797,131.989-68.362c74.212-49.564,115.394-9.867,115.394-9.867S367.2,349.94,340.382,333.45z"/>
<path fill-rule="evenodd" clip-rule="evenodd" fill="#7C3D44" d="M696.254,296.729c-25.295-7.521-57.515-6.66-75.465-1.865
	c-39.526,10.531-57.737,18.754-131.865,68.318c-74.127,49.563-115.349,9.729-115.349,9.729s7.4,25.274,34.231,41.829
	c21.599,13.327,61.138,33.291,170.598-1.59c91.145-29.044,169.581-86.157,169.581-86.157S734.896,308.224,696.254,296.729z"/>
<path fill-rule="evenodd" clip-rule="evenodd" fill="#7C3D44" d="M26.267,228.022c0,0,96.602-10.168,190.179,10.208
	c112.385,24.472,136.688,61.394,148.754,83.65c14.989,27.646,8.764,53.126,8.764,53.126s-15.827-54.89-104.913-49.086
	c-89.086,5.799-108.991,3.811-148.544-6.802c-17.962-4.821-46.34-20.121-64.516-39.22C28.229,250.731,26.267,228.022,26.267,228.022
	z"/>
<path fill-rule="evenodd" clip-rule="evenodd" fill="#7C3D44" d="M721.582,519.824c0,0-96.522,10.218-190.014-10.182
	c-112.281-24.496-136.554-61.509-148.604-83.811c-14.969-27.71-8.742-53.258-8.742-53.258s15.799,55.023,104.811,49.183
	c89.01-5.836,108.898-3.854,148.414,6.774c17.944,4.827,46.295,20.162,64.45,39.298
	C719.627,497.059,721.582,519.824,721.582,519.824z"/>
<path fill-rule="evenodd" clip-rule="evenodd" fill="#7C3D44" d="M375.183,374.038c0,0-25.523-6.224-53.213,8.758
	c-22.288,12.057-59.268,36.341-83.757,148.675c-20.392,93.535-10.193,190.098-10.193,190.098s22.743-1.955,51.955-29.705
	c19.125-18.163,34.449-46.525,39.273-64.481c10.623-39.534,12.61-59.431,6.786-148.48
	C320.209,389.854,375.183,374.038,375.183,374.038z"/>
<path fill-rule="evenodd" clip-rule="evenodd" fill="#7C3D44" d="M520.174,26.596c0,0-22.798,1.953-52.074,29.666
	c-19.165,18.144-34.52,46.479-39.351,64.417c-10.639,39.496-12.625,59.374-6.762,148.349c5.863,88.973-49.242,104.76-49.242,104.76
	s25.588,6.224,53.341-8.734c22.34-12.037,59.402-36.295,83.922-148.522C530.425,123.079,520.174,26.596,520.174,26.596z"/>
</svg>
